<svg width="81" height="100" viewBox="0 0 81 100" fill="none" xmlns="http://www.w3.org/2000/svg">
<g filter="url(#filter0_d_80_505)">
<path d="M49.3048 24H31.5373C29.5387 24.0014 27.6224 24.796 26.2092 26.2092C24.796 27.6224 24.0014 29.5387 24 31.5373V68.4627C24.0014 70.4613 24.796 72.3776 26.2092 73.7908C27.6224 75.204 29.5387 75.9986 31.5373 76H49.3048C51.3034 75.9986 53.2197 75.204 54.6329 73.7908C56.0461 72.3776 56.8407 70.4613 56.8421 68.4627V31.5373C56.8407 29.5387 56.0461 27.6224 54.6329 26.2092C53.2197 24.796 51.3034 24.0014 49.3048 24ZM54.1053 68.4627C54.1024 69.735 53.5957 70.9543 52.6961 71.854C51.7964 72.7536 50.5771 73.2603 49.3048 73.2632H31.5373C30.265 73.2603 29.0457 72.7536 28.146 71.854C27.2464 70.9543 26.7397 69.735 26.7368 68.4627V31.5373C26.7397 30.265 27.2464 29.0457 28.146 28.146C29.0457 27.2464 30.265 26.7397 31.5373 26.7368H49.3048C50.5771 26.7397 51.7964 27.2464 52.6961 28.146C53.5957 29.0457 54.1024 30.265 54.1053 31.5373V68.4627Z" fill="white"/>
</g>
<defs>
<filter id="filter0_d_80_505" x="0" y="0" width="80.8422" height="100" filterUnits="userSpaceOnUse" color-interpolation-filters="sRGB">
<feFlood flood-opacity="0" result="BackgroundImageFix"/>
<feColorMatrix in="SourceAlpha" type="matrix" values="0 0 0 0 0 0 0 0 0 0 0 0 0 0 0 0 0 0 127 0" result="hardAlpha"/>
<feMorphology radius="4" operator="dilate" in="SourceAlpha" result="effect1_dropShadow_80_505"/>
<feOffset/>
<feGaussianBlur stdDeviation="10"/>
<feComposite in2="hardAlpha" operator="out"/>
<feColorMatrix type="matrix" values="0 0 0 0 0.658824 0 0 0 0 0.407843 0 0 0 0 0.717647 0 0 0 1 0"/>
<feBlend mode="normal" in2="BackgroundImageFix" result="effect1_dropShadow_80_505"/>
<feBlend mode="normal" in="SourceGraphic" in2="effect1_dropShadow_80_505" result="shape"/>
</filter>
</defs>
</svg>
