<svg width="103" height="96" viewBox="0 0 103 96" fill="none" xmlns="http://www.w3.org/2000/svg">
<g filter="url(#filter0_d_81_311)">
<path d="M57.4984 24H45.0225C42.1798 24 39.8674 26.3123 39.8674 29.1551V36.5981H29.1551C26.3123 36.5981 24 38.9105 24 41.7532V70.4754C24 70.9814 24.4106 71.392 24.9166 71.392H40.784H61.7393C62.2453 71.392 62.656 70.9814 62.656 70.4754V29.1551C62.6523 26.3123 60.3412 24 57.4984 24ZM45.0225 25.8333H57.4984C59.3317 25.8333 60.8215 27.3231 60.8215 29.1551V69.56H57.1403V62.9566C57.1403 61.8664 56.2542 60.9804 55.1641 60.9804H47.3581C46.2679 60.9804 45.3818 61.8677 45.3818 62.9566V69.56H41.7019V29.1551C41.6994 27.3231 43.1905 25.8333 45.0225 25.8333ZM47.2139 62.9542C47.2139 62.876 47.2786 62.8112 47.3569 62.8112H55.1641C55.2423 62.8112 55.3071 62.876 55.3071 62.9542V69.5588H47.2126L47.2139 62.9542ZM29.1551 38.4314H39.8674V69.56H25.8333V41.7532C25.8333 39.9224 27.3231 38.4314 29.1551 38.4314Z" fill="white"/>
<path d="M75.7857 45.3622C76.7353 44.4578 77.4062 43.3004 77.7118 41.9951C78.1249 40.2254 77.8242 38.4019 76.8648 36.8583C75.9054 35.3147 74.4034 34.238 72.6325 33.8249C70.864 33.413 69.0405 33.7125 67.4981 34.6719C64.3119 36.6518 63.3305 40.8536 65.3117 44.0398C65.6123 44.525 65.9826 44.9662 66.3957 45.3622C65.0966 46.3167 64.1164 47.6293 63.5933 49.1863C62.9174 51.1895 63.0629 53.3356 64.0015 55.2263C64.9401 57.1207 66.5607 58.5335 68.5602 59.2093C69.0906 59.3878 69.6296 59.4892 70.171 59.5516V69.5587H69.1371C68.6311 69.5587 68.2204 69.9693 68.2204 70.4753C68.2204 70.9813 68.6311 71.3919 69.1371 71.3919H73.037C73.543 71.3919 73.9536 70.9813 73.9536 70.4753C73.9536 69.9693 73.543 69.5587 73.037 69.5587H72.003V59.5711C72.894 59.466 73.7715 59.2081 74.6002 58.7963C76.4933 57.8564 77.9061 56.2395 78.582 54.2388C79.2554 52.2357 79.1124 50.0895 78.1713 48.1988C77.6165 47.0769 76.7878 46.1053 75.7857 45.3622ZM76.8453 53.6534C76.3271 55.1909 75.2406 56.435 73.7874 57.1561C72.3318 57.8796 70.6868 57.9908 69.1468 57.4714C67.6093 56.9532 66.3664 55.8667 65.6453 54.4123C64.9242 52.958 64.8118 51.3105 65.33 49.7718C65.8482 48.2343 66.9359 46.9901 68.3903 46.269C68.3952 46.2666 68.4001 46.2605 68.405 46.2568C68.4306 46.2434 68.4478 46.2201 68.4746 46.2055C68.5724 46.1407 68.6555 46.0637 68.7227 45.9708C68.7325 45.9549 68.7509 45.9488 68.7631 45.9317C68.7826 45.9012 68.7851 45.8669 68.7985 45.8352C68.8242 45.7789 68.8486 45.7239 68.8633 45.6616C68.878 45.6042 68.8853 45.5492 68.8877 45.4905C68.8902 45.4331 68.8902 45.3768 68.8804 45.3182C68.8706 45.2546 68.8547 45.1972 68.8327 45.1373C68.8181 45.1055 68.8205 45.0713 68.8071 45.0395C68.7949 45.0175 68.779 45.0053 68.7643 44.9857C68.7337 44.932 68.6946 44.8868 68.6519 44.8391C68.6103 44.7939 68.57 44.7511 68.5199 44.7144C68.5003 44.701 68.4918 44.679 68.4698 44.6668C67.8257 44.2659 67.272 43.7147 66.8699 43.0694C65.4229 40.7424 66.1415 37.6735 68.4698 36.2277C69.5941 35.5262 70.9239 35.3074 72.2194 35.6093C73.5136 35.9111 74.6112 36.6982 75.3102 37.8251C76.0093 38.9519 76.2293 40.2841 75.9286 41.5771C75.6256 42.869 74.8397 43.9677 73.7129 44.6668C73.6909 44.6802 73.6799 44.701 73.6603 44.7157C73.6126 44.7511 73.5723 44.7926 73.532 44.8391C73.4892 44.8868 73.4489 44.932 73.4171 44.9857C73.4049 45.0053 73.3865 45.0175 73.3768 45.0395C73.3597 45.0701 73.3621 45.1043 73.3511 45.1373C73.3291 45.1972 73.3132 45.2546 73.3034 45.3182C73.2937 45.3768 73.2937 45.4318 73.2961 45.4905C73.2985 45.5492 73.3059 45.6042 73.3205 45.6616C73.3352 45.7227 73.3584 45.7777 73.3853 45.8352C73.4 45.8669 73.4024 45.9012 73.4208 45.9317C73.433 45.9525 73.4538 45.9635 73.4684 45.983C73.5039 46.0319 73.5454 46.0723 73.5906 46.1126C73.6383 46.1566 73.686 46.1957 73.7385 46.2275C73.7581 46.2397 73.7715 46.258 73.7911 46.269C74.9754 46.8557 75.9494 47.8297 76.5361 49.014C77.251 50.4684 77.3635 52.1159 76.8453 53.6534Z" fill="white"/>
<path d="M46.0223 32.4527C47.5244 32.4527 48.7453 31.2305 48.7453 29.7297C48.7453 28.2289 47.5231 27.0067 46.0223 27.0067C44.5215 27.0067 43.2993 28.2289 43.2993 29.7297C43.2993 31.2305 44.5203 32.4527 46.0223 32.4527ZM46.0223 28.8412C46.5124 28.8412 46.912 29.2396 46.912 29.7309C46.912 30.2222 46.5124 30.6207 46.0223 30.6207C45.5322 30.6207 45.1326 30.221 45.1326 29.7309C45.1326 29.2408 45.5322 28.8412 46.0223 28.8412Z" fill="white"/>
<path d="M46.0223 39.2906C47.5244 39.2906 48.7453 38.0696 48.7453 36.5676C48.7453 35.0656 47.5231 33.8446 46.0223 33.8446C44.5215 33.8446 43.2993 35.0668 43.2993 36.5676C43.2993 38.0684 44.5203 39.2906 46.0223 39.2906ZM46.0223 35.6791C46.5124 35.6791 46.912 36.0787 46.912 36.5688C46.912 37.0589 46.5124 37.4586 46.0223 37.4586C45.5322 37.4586 45.1326 37.0601 45.1326 36.5688C45.1326 36.0775 45.5322 35.6791 46.0223 35.6791Z" fill="white"/>
<path d="M46.0223 46.1298C47.5244 46.1298 48.7453 44.9089 48.7453 43.4068C48.7453 41.9048 47.5231 40.6838 46.0223 40.6838C44.5215 40.6838 43.2993 41.906 43.2993 43.4068C43.2993 44.9077 44.5203 46.1298 46.0223 46.1298ZM46.0223 42.5183C46.5124 42.5183 46.912 42.918 46.912 43.4081C46.912 43.8981 46.5124 44.2978 46.0223 44.2978C45.5322 44.2978 45.1326 43.8994 45.1326 43.4081C45.1326 42.9167 45.5322 42.5183 46.0223 42.5183Z" fill="white"/>
<path d="M46.0223 52.9692C47.5244 52.9692 48.7453 51.747 48.7453 50.245C48.7453 48.7429 47.5231 47.522 46.0223 47.522C44.5215 47.522 43.2993 48.7441 43.2993 50.245C43.2993 51.7458 44.5203 52.9692 46.0223 52.9692ZM46.0223 49.3552C46.5124 49.3552 46.912 49.7537 46.912 50.2462C46.912 50.7387 46.5124 51.1371 46.0223 51.1371C45.5322 51.1371 45.1326 50.7375 45.1326 50.2462C45.1326 49.7573 45.5322 49.3552 46.0223 49.3552Z" fill="white"/>
<path d="M46.0223 59.8072C47.5244 59.8072 48.7453 58.5862 48.7453 57.0842C48.7453 55.5822 47.5231 54.36 46.0223 54.36C44.5215 54.36 43.2993 55.5822 43.2993 57.0842C43.2993 58.585 44.5203 59.8072 46.0223 59.8072ZM46.0223 56.1945C46.5124 56.1945 46.912 56.5941 46.912 57.0854C46.912 57.5767 46.5124 57.9764 46.0223 57.9764C45.5322 57.9764 45.1326 57.578 45.1326 57.0854C45.1326 56.5941 45.5322 56.1945 46.0223 56.1945Z" fill="white"/>
<path d="M56.4986 32.4527C58.0007 32.4527 59.2228 31.2305 59.2228 29.7297C59.2228 28.2289 58.0007 27.0067 56.4986 27.0067C54.9966 27.0067 53.7744 28.2289 53.7744 29.7297C53.7744 31.2305 54.9966 32.4527 56.4986 32.4527ZM56.4986 28.8412C56.9875 28.8412 57.3896 29.2396 57.3896 29.7309C57.3896 30.2222 56.9887 30.6207 56.4986 30.6207C56.0085 30.6207 55.6077 30.221 55.6077 29.7309C55.6077 29.2408 56.0085 28.8412 56.4986 28.8412Z" fill="white"/>
<path d="M56.4986 39.2906C58.0007 39.2906 59.2228 38.0696 59.2228 36.5676C59.2228 35.0656 58.0007 33.8446 56.4986 33.8446C54.9966 33.8446 53.7744 35.0668 53.7744 36.5676C53.7744 38.0684 54.9966 39.2906 56.4986 39.2906ZM56.4986 35.6791C56.9875 35.6791 57.3896 36.0787 57.3896 36.5688C57.3896 37.0589 56.9887 37.4586 56.4986 37.4586C56.0085 37.4586 55.6077 37.0601 55.6077 36.5688C55.6077 36.0775 56.0085 35.6791 56.4986 35.6791Z" fill="white"/>
<path d="M56.4986 46.1298C58.0007 46.1298 59.2228 44.9089 59.2228 43.4068C59.2228 41.9048 58.0007 40.6838 56.4986 40.6838C54.9966 40.6838 53.7744 41.906 53.7744 43.4068C53.7744 44.9077 54.9966 46.1298 56.4986 46.1298ZM56.4986 42.5183C56.9875 42.5183 57.3896 42.918 57.3896 43.4081C57.3896 43.8981 56.9887 44.2978 56.4986 44.2978C56.0085 44.2978 55.6077 43.8994 55.6077 43.4081C55.6077 42.9167 56.0085 42.5183 56.4986 42.5183Z" fill="white"/>
<path d="M56.4986 52.9692C58.0007 52.9692 59.2228 51.747 59.2228 50.245C59.2228 48.7429 58.0007 47.522 56.4986 47.522C54.9966 47.522 53.7744 48.7441 53.7744 50.245C53.7744 51.7458 54.9966 52.9692 56.4986 52.9692ZM56.4986 49.3552C56.9875 49.3552 57.3896 49.7537 57.3896 50.2462C57.3896 50.7387 56.9887 51.1371 56.4986 51.1371C56.0085 51.1371 55.6077 50.7375 55.6077 50.2462C55.6077 49.7573 56.0085 49.3552 56.4986 49.3552Z" fill="white"/>
<path d="M56.4986 59.8072C58.0007 59.8072 59.2228 58.5862 59.2228 57.0842C59.2228 55.5822 58.0007 54.36 56.4986 54.36C54.9966 54.36 53.7744 55.5822 53.7744 57.0842C53.7744 58.585 54.9966 59.8072 56.4986 59.8072ZM56.4986 56.1945C56.9875 56.1945 57.3896 56.5941 57.3896 57.0854C57.3896 57.5767 56.9887 57.9764 56.4986 57.9764C56.0085 57.9764 55.6077 57.578 55.6077 57.0854C55.6077 56.5941 56.0085 56.1945 56.4986 56.1945Z" fill="white"/>
<path d="M29.5766 45.8732C31.0775 45.8732 32.2996 44.6523 32.2996 43.1502C32.2996 41.6482 31.0775 40.4272 29.5766 40.4272C28.0746 40.4272 26.8536 41.6494 26.8536 43.1502C26.8536 44.6511 28.0746 45.8732 29.5766 45.8732ZM29.5766 42.2617C30.0667 42.2617 30.4664 42.6614 30.4664 43.1515C30.4664 43.6415 30.0679 44.0412 29.5766 44.0412C29.0853 44.0412 28.6869 43.6415 28.6869 43.1515C28.6857 42.6614 29.0865 42.2617 29.5766 42.2617Z" fill="white"/>
<path d="M29.5766 52.7123C31.0775 52.7123 32.2996 51.4902 32.2996 49.9893C32.2996 48.4885 31.0775 47.2664 29.5766 47.2664C28.0746 47.2664 26.8536 48.4885 26.8536 49.9893C26.8536 51.4902 28.0746 52.7123 29.5766 52.7123ZM29.5766 49.0996C30.0667 49.0996 30.4664 49.498 30.4664 49.9893C30.4664 50.4807 30.0679 50.8791 29.5766 50.8791C29.0853 50.8791 28.6869 50.4807 28.6869 49.9893C28.6869 49.498 29.0865 49.0996 29.5766 49.0996Z" fill="white"/>
<path d="M29.5766 59.5504C31.0775 59.5504 32.2996 58.3282 32.2996 56.8261C32.2996 55.3241 31.0775 54.1031 29.5766 54.1031C28.0746 54.1031 26.8536 55.3253 26.8536 56.8261C26.8524 58.3282 28.0746 59.5504 29.5766 59.5504ZM29.5766 55.9388C30.0667 55.9388 30.4664 56.3373 30.4664 56.8298C30.4664 57.3199 30.0679 57.7195 29.5766 57.7195C29.0853 57.7195 28.6869 57.3199 28.6869 56.8298C28.6857 56.3385 29.0865 55.9388 29.5766 55.9388Z" fill="white"/>
<path d="M29.5766 66.3897C31.0775 66.3897 32.2996 65.1675 32.2996 63.6655C32.2996 62.1635 31.0775 60.9425 29.5766 60.9425C28.0746 60.9425 26.8536 62.1635 26.8536 63.6655C26.8536 65.1675 28.0746 66.3897 29.5766 66.3897ZM29.5766 62.7782C30.0667 62.7782 30.4664 63.1766 30.4664 63.6692C30.4664 64.1617 30.0679 64.5589 29.5766 64.5589C29.0853 64.5589 28.6869 64.1593 28.6869 63.6679C28.6857 63.1754 29.0865 62.7782 29.5766 62.7782Z" fill="white"/>
<path d="M36.1227 45.8732C37.6235 45.8732 38.8456 44.6523 38.8456 43.1502C38.8456 41.6482 37.6235 40.4272 36.1227 40.4272C34.6206 40.4272 33.3997 41.6494 33.3997 43.1502C33.3997 44.6511 34.6206 45.8732 36.1227 45.8732ZM36.1227 42.2617C36.6127 42.2617 37.0124 42.6614 37.0124 43.1515C37.0124 43.6415 36.614 44.0412 36.1227 44.0412C35.6313 44.0412 35.2329 43.6428 35.2329 43.1515C35.2329 42.6601 35.6326 42.2617 36.1227 42.2617Z" fill="white"/>
<path d="M36.1227 52.7123C37.6235 52.7123 38.8456 51.4902 38.8456 49.9893C38.8456 48.4885 37.6235 47.2664 36.1227 47.2664C34.6206 47.2664 33.3997 48.4885 33.3997 49.9893C33.3997 51.4902 34.6206 52.7123 36.1227 52.7123ZM36.1227 49.0996C36.6127 49.0996 37.0124 49.498 37.0124 49.9893C37.0124 50.4807 36.614 50.8791 36.1227 50.8791C35.6313 50.8791 35.2329 50.4807 35.2329 49.9893C35.2329 49.498 35.6326 49.0996 36.1227 49.0996Z" fill="white"/>
<path d="M36.1227 59.5504C37.6235 59.5504 38.8456 58.3282 38.8456 56.8261C38.8456 55.3241 37.6235 54.1031 36.1227 54.1031C34.6206 54.1031 33.3997 55.3253 33.3997 56.8261C33.3997 58.3282 34.6206 59.5504 36.1227 59.5504ZM36.1227 55.9388C36.6127 55.9388 37.0124 56.3373 37.0124 56.8298C37.0124 57.3199 36.614 57.7195 36.1227 57.7195C35.6313 57.7195 35.2329 57.3211 35.2329 56.8298C35.2329 56.3373 35.6326 55.9388 36.1227 55.9388Z" fill="white"/>
<path d="M36.1227 66.3897C37.6235 66.3897 38.8456 65.1675 38.8456 63.6655C38.8456 62.1635 37.6235 60.9425 36.1227 60.9425C34.6206 60.9425 33.3997 62.1635 33.3997 63.6655C33.3997 65.1675 34.6206 66.3897 36.1227 66.3897ZM36.1227 62.7782C36.6127 62.7782 37.0124 63.1766 37.0124 63.6692C37.0124 64.1617 36.614 64.5589 36.1227 64.5589C35.6313 64.5589 35.2329 64.1617 35.2329 63.6692C35.2329 63.1766 35.6326 62.7782 36.1227 62.7782Z" fill="white"/>
</g>
<defs>
<filter id="filter0_d_81_311" x="0" y="0" width="103" height="95.392" filterUnits="userSpaceOnUse" color-interpolation-filters="sRGB">
<feFlood flood-opacity="0" result="BackgroundImageFix"/>
<feColorMatrix in="SourceAlpha" type="matrix" values="0 0 0 0 0 0 0 0 0 0 0 0 0 0 0 0 0 0 127 0" result="hardAlpha"/>
<feMorphology radius="4" operator="dilate" in="SourceAlpha" result="effect1_dropShadow_81_311"/>
<feOffset/>
<feGaussianBlur stdDeviation="10"/>
<feComposite in2="hardAlpha" operator="out"/>
<feColorMatrix type="matrix" values="0 0 0 0 0.658824 0 0 0 0 0.407843 0 0 0 0 0.717647 0 0 0 1 0"/>
<feBlend mode="normal" in2="BackgroundImageFix" result="effect1_dropShadow_81_311"/>
<feBlend mode="normal" in="SourceGraphic" in2="effect1_dropShadow_81_311" result="shape"/>
</filter>
</defs>
</svg>
