<svg width="11" height="18" viewBox="0 0 11 18" fill="none" xmlns="http://www.w3.org/2000/svg">
<path d="M8.82583 17.655C9.06262 17.8782 9.36399 18 9.71917 18C10.4295 18 11 17.4724 11 16.8027C11 16.4679 10.8493 16.1635 10.6018 15.9301L3.06751 8.98986L10.6018 2.0699C10.8493 1.83653 11 1.52199 11 1.1973C11 0.527623 10.4295 1.82356e-06 9.71918 1.69935e-06C9.36399 1.63725e-06 9.06262 0.12176 8.82583 0.344985L0.452053 8.05637C0.150683 8.32018 0.0107617 8.64487 -1.57361e-06 9C-1.6357e-06 9.35513 0.150683 9.65953 0.452053 9.93349L8.82583 17.655Z" fill="white"/>
</svg>
