<svg width="9" height="14" viewBox="0 0 9 14" fill="none" xmlns="http://www.w3.org/2000/svg">
<path d="M2.5011 0.558785C2.32674 0.391367 2.10482 0.300047 1.84327 0.300047C1.32018 0.300047 0.900121 0.695763 0.900121 1.19802C0.900121 1.44914 1.01108 1.67744 1.19337 1.85247L6.74132 7.05766L1.19337 12.2476C1.01108 12.4227 0.90012 12.6586 0.90012 12.9021C0.90012 13.4043 1.32018 13.8 1.84327 13.8C2.10482 13.8 2.32673 13.7087 2.5011 13.5413L8.66725 7.75777C8.88916 7.55991 8.9922 7.3164 9.00012 7.05005C9.00012 6.7837 8.88916 6.5554 8.66725 6.34994L2.5011 0.558785Z" fill="white"/>
</svg>
