<svg width="105" height="84" viewBox="0 0 105 84" fill="none" xmlns="http://www.w3.org/2000/svg">
<g filter="url(#filter0_d_80_334)">
<path d="M38.0907 24C37.4904 24 36.8182 24.145 36.0893 24.5826C35.3707 25.0141 34.641 25.7995 34.3281 26.8929C34.3237 26.9083 34.3124 26.9174 34.3081 26.933L31.2861 36.5759L26.0425 38.9062C26.0223 38.9124 26.0023 38.9191 25.9824 38.9263C25.1909 39.3236 24.5541 39.9053 24.2613 40.6339C23.9684 41.3626 24.0011 41.9866 24.0011 42.6228V51C24.0011 52.7599 25.4096 54.2143 27.2033 54.2143H29.2447C29.8501 57.4978 32.7298 60 36.1694 60C39.609 60 42.4886 57.4978 43.0941 54.2143H62.5474C63.1529 57.4978 66.0326 60 69.4721 60C72.9117 60 75.7914 57.4978 76.3969 54.2143H77.7978C78.8311 54.2143 79.7752 53.81 80.3195 53.1295C80.8638 52.4489 81 51.6586 81 51V44.2701C81 42.6167 80.0194 41.0357 78.3782 40.2121C78.3262 40.1884 78.2727 40.1683 78.2181 40.1518L67.791 36.4554L63.0277 27.9375C63.0211 27.9307 63.0145 27.924 63.0077 27.9174C62.2004 26.52 61.377 25.4948 60.2859 24.8438C59.1947 24.1927 57.9608 24 56.5633 24H38.0907ZM38.0907 26.5714H56.5633C57.7404 26.5714 58.4246 26.7192 58.985 27.0536C59.5408 27.3852 60.0951 27.9927 60.7862 29.183C60.7919 29.1929 60.8005 29.1932 60.8062 29.2031L65.7896 38.1228C65.9442 38.3964 66.1935 38.6037 66.4901 38.7054L73.9552 41.3571V45.8571C73.9552 46.1981 74.0902 46.5251 74.3304 46.7662C74.5706 47.0074 74.8964 47.1428 75.2361 47.1429H78.4383V51C78.4383 51.2797 78.3575 51.4531 78.3182 51.5022C78.2788 51.5514 78.2726 51.6429 77.7978 51.6429H76.3969C75.7914 48.3594 72.9117 45.8571 69.4721 45.8571C66.0326 45.8571 63.1529 48.3594 62.5474 51.6429H43.0941C42.4886 48.3594 39.609 45.8571 36.1694 45.8571C32.7298 45.8571 29.8501 48.3594 29.2447 51.6429H27.2033C26.9164 51.6429 26.5628 51.2548 26.5628 51V42.6228C26.5628 41.9866 26.5955 41.6664 26.6229 41.5982C26.6503 41.53 26.6539 41.4621 27.1432 41.2165L32.8471 38.6652C33.0123 38.5916 33.1602 38.4837 33.2809 38.3487C33.4016 38.2137 33.4925 38.0545 33.5476 37.8817L36.7698 27.6562C36.7767 27.643 36.7834 27.6296 36.7898 27.6161C36.9125 27.1669 37.1153 26.9575 37.3902 26.7924C37.6651 26.6274 38.0506 26.5714 38.0907 26.5714ZM39.2515 28.5C38.9884 28.5251 38.7395 28.6312 38.5388 28.8038C38.3382 28.9764 38.1956 29.2071 38.1307 29.4643L36.2094 37.1786C36.1606 37.3686 36.1557 37.5674 36.1952 37.7596C36.2347 37.9518 36.3175 38.1324 36.4373 38.2875C36.557 38.4427 36.7106 38.5682 36.8862 38.6546C37.0618 38.7409 37.2547 38.7858 37.4503 38.7857H45.1355C45.4752 38.7857 45.801 38.6502 46.0412 38.4091C46.2814 38.168 46.4164 37.841 46.4164 37.5V29.7857C46.4164 29.4447 46.2814 29.1177 46.0412 28.8766C45.801 28.6355 45.4752 28.5 45.1355 28.5H39.3716C39.3316 28.4981 39.2915 28.4981 39.2515 28.5ZM49.4985 28.5C49.18 28.5301 48.8843 28.6788 48.6695 28.9167C48.4547 29.1546 48.3363 29.4646 48.3377 29.7857V37.5C48.3377 37.841 48.4727 38.168 48.7129 38.4091C48.9531 38.6502 49.2789 38.7857 49.6186 38.7857H61.7869C62.011 38.7842 62.2308 38.7237 62.4243 38.6102C62.6178 38.4967 62.7783 38.3343 62.8897 38.1391C63.0011 37.9439 63.0595 37.7228 63.0592 37.4979C63.0588 37.2729 62.9997 37.052 62.8876 36.8571L58.4046 29.1429C58.2929 28.9487 58.1325 28.7872 57.9394 28.6744C57.7463 28.5616 57.5272 28.5015 57.3038 28.5H49.6186C49.5786 28.4981 49.5385 28.4981 49.4985 28.5ZM40.3723 31.0714H43.8546V36.2143H39.0914L40.3723 31.0714ZM50.8994 31.0714H56.5833L59.5654 36.2143H50.8994V31.0714ZM76.5169 42.2612L77.2174 42.5022C78.138 42.9643 78.4383 43.5424 78.4383 44.2701V44.5714H76.5169V42.2612ZM36.1694 48.4286C38.6605 48.4286 40.6525 50.4281 40.6525 52.9286C40.6525 55.4291 38.6605 57.4286 36.1694 57.4286C33.6783 57.4286 31.6863 55.4291 31.6863 52.9286C31.6863 50.4281 33.6783 48.4286 36.1694 48.4286ZM69.4721 48.4286C71.9632 48.4286 73.9552 50.4281 73.9552 52.9286C73.9552 55.4291 71.9632 57.4286 69.4721 57.4286C66.981 57.4286 64.9891 55.4291 64.9891 52.9286C64.9891 50.4281 66.981 48.4286 69.4721 48.4286ZM36.1694 51C35.1083 51 34.2481 51.8635 34.2481 52.9286C34.2481 53.9937 35.1083 54.8571 36.1694 54.8571C37.2305 54.8571 38.0907 53.9937 38.0907 52.9286C38.0907 51.8635 37.2305 51 36.1694 51ZM69.4721 51C68.411 51 67.5508 51.8635 67.5508 52.9286C67.5508 53.9937 68.411 54.8571 69.4721 54.8571C70.5332 54.8571 71.3934 53.9937 71.3934 52.9286C71.3934 51.8635 70.5332 51 69.4721 51Z" fill="white"/>
</g>
<defs>
<filter id="filter0_d_80_334" x="0" y="0" width="105" height="84" filterUnits="userSpaceOnUse" color-interpolation-filters="sRGB">
<feFlood flood-opacity="0" result="BackgroundImageFix"/>
<feColorMatrix in="SourceAlpha" type="matrix" values="0 0 0 0 0 0 0 0 0 0 0 0 0 0 0 0 0 0 127 0" result="hardAlpha"/>
<feMorphology radius="4" operator="dilate" in="SourceAlpha" result="effect1_dropShadow_80_334"/>
<feOffset/>
<feGaussianBlur stdDeviation="10"/>
<feComposite in2="hardAlpha" operator="out"/>
<feColorMatrix type="matrix" values="0 0 0 0 0.658824 0 0 0 0 0.407843 0 0 0 0 0.717647 0 0 0 1 0"/>
<feBlend mode="normal" in2="BackgroundImageFix" result="effect1_dropShadow_80_334"/>
<feBlend mode="normal" in="SourceGraphic" in2="effect1_dropShadow_80_334" result="shape"/>
</filter>
</defs>
</svg>
