<svg width="24" height="24" viewBox="0 0 24 24" fill="none" xmlns="http://www.w3.org/2000/svg">
<path d="M19.9062 2.20187e-05C19.6711 0.0016447 19.4354 0.0933293 19.254 0.274722L18.3455 1.18319L22.8168 5.65442L23.7252 4.74607C24.088 4.38329 24.0921 3.80319 23.7343 3.44539L20.5547 0.265732C20.3758 0.0868298 20.1414 -0.00160403 19.9062 2.20187e-05ZM17.6356 1.89312L16.3679 3.1608L20.8392 7.63202L22.1068 6.36447L17.6356 1.89312ZM15.6966 3.83207L1.5269 18.0018C0.968689 20.0243 0.559291 21.4894 0.0308728 23.3898C-0.0927173 23.8343 0.165722 24.0927 0.610197 23.9691C2.59655 23.4184 4.17259 22.9756 5.99825 22.473L20.168 8.30342L19.2294 7.36477L5.19752 21.3965L2.88023 22.0112L1.9887 21.1198L2.60335 18.8024L16.6351 4.7706L15.6966 3.83207Z" fill="white"/>
</svg>
