<svg width="28" height="16" viewBox="0 0 28 16" fill="none" xmlns="http://www.w3.org/2000/svg">
<path d="M14 15.98C19.93 15.98 25.38 13.04 27.88 8.48004C28.04 8.18005 28.04 7.82007 27.88 7.52002C25.38 2.96002 19.93 0.0200195 14 0.0200195C8.06999 0.0200195 2.61998 2.96002 0.119978 7.52002C-0.0399925 7.82007 -0.0399925 8.18005 0.119978 8.48004C2.61998 13.04 8.06999 15.98 14 15.98ZM9.71214 8.00006C9.71214 5.63995 11.6399 3.71222 14 3.71222C16.3601 3.71222 18.2878 5.63995 18.2878 8.00006C18.2878 10.3602 16.3601 12.2879 14 12.2879C11.6399 12.2879 9.71214 10.3602 9.71214 8.00006Z" fill="white"/>
</svg>
