<svg width="24" height="24" viewBox="0 0 24 24" fill="none" xmlns="http://www.w3.org/2000/svg">
<path d="M11.6666 23.3332C8.57245 23.3332 5.60507 22.1041 3.41689 19.9163C1.22904 17.7282 0 14.7608 0 11.6666C0 8.57245 1.22912 5.60507 3.41689 3.41689C5.60507 1.22904 8.57245 0 11.6666 0C14.7608 0 17.7282 1.22912 19.9163 3.41689C22.1042 5.60507 23.3332 8.57245 23.3332 11.6666C23.3293 14.7594 22.0988 17.7249 19.9117 19.9117C17.7249 22.0988 14.7594 23.3292 11.6666 23.3332ZM11.6666 1.48619C8.96659 1.48619 6.37704 2.55871 4.46784 4.46784C2.55863 6.37696 1.48619 8.96659 1.48619 11.6666C1.48619 14.3666 2.55872 16.9562 4.46784 18.8654C6.37696 20.7746 8.96659 21.847 11.6666 21.847C14.3666 21.847 16.9562 20.7745 18.8654 18.8654C20.7746 16.9563 21.847 14.3666 21.847 11.6666C21.8431 8.96795 20.7693 6.38069 18.8611 4.47217C16.9525 2.56398 14.3653 1.49018 11.6666 1.48619Z" fill="#76788F"/>
<path d="M11.6667 17.4996C11.0224 17.4996 10.5 17.1572 10.5 16.735V10.0977C10.5 9.67541 11.0224 9.33301 11.6667 9.33301C12.3109 9.33301 12.8333 9.67541 12.8333 10.0977V16.735C12.8333 16.9377 12.7104 17.1323 12.4917 17.2757C12.2729 17.4191 11.976 17.4996 11.6667 17.4996Z" fill="#76788F"/>
<path d="M12.8333 6.99986C12.8333 7.64402 12.311 8.16633 11.6665 8.16633C11.0223 8.16633 10.5 7.64406 10.5 6.99986C10.5 6.35533 11.0223 5.83301 11.6665 5.83301C12.311 5.83301 12.8333 6.35528 12.8333 6.99986Z" fill="#76788F"/>
</svg>
