<svg width="23" height="14" viewBox="0 0 23 14" fill="none" xmlns="http://www.w3.org/2000/svg">
<path fill-rule="evenodd" clip-rule="evenodd" d="M16.5312 1.4C15.3404 1.4 14.375 2.3402 14.375 3.5C14.375 4.6598 15.3404 5.6 16.5312 5.6C17.7221 5.6 18.6875 4.6598 18.6875 3.5C18.6875 2.3402 17.7221 1.4 16.5312 1.4ZM13.0094 2.8C13.3424 1.20243 14.7926 0 16.5312 0C18.2699 0 19.7201 1.20243 20.0531 2.8H23V4.2H20.0531C19.7201 5.79757 18.2699 7 16.5312 7C14.7926 7 13.3424 5.79757 13.0094 4.2H0V2.8H13.0094ZM6.46875 8.4C5.27789 8.4 4.3125 9.3402 4.3125 10.5C4.3125 11.6598 5.27789 12.6 6.46875 12.6C7.65961 12.6 8.625 11.6598 8.625 10.5C8.625 9.3402 7.65961 8.4 6.46875 8.4ZM2.94689 9.8C3.27986 8.20243 4.73012 7 6.46875 7C8.20738 7 9.65764 8.20243 9.99061 9.8H23V11.2H9.99061C9.65764 12.7976 8.20738 14 6.46875 14C4.73012 14 3.27986 12.7976 2.94689 11.2H0V9.8H2.94689Z" fill="#76788F"/>
</svg>
