<svg width="29" height="28" viewBox="0 0 29 28" fill="none" xmlns="http://www.w3.org/2000/svg">
<path d="M28.0509 0.571956C27.7546 0.334644 27.4078 0.164682 27.0357 0.0744278C26.6635 -0.0158267 26.2755 -0.0241064 25.8996 0.0501903L14.5 2.27219L3.10036 0.0501903C2.72441 -0.0234393 2.33637 -0.0147678 1.96427 0.0755793C1.59216 0.165926 1.24528 0.335695 0.948653 0.572629C0.652027 0.809562 0.413062 1.10775 0.249008 1.44567C0.0849546 1.78358 -9.47755e-05 2.15279 7.92556e-08 2.52665V23.1274C0.00116319 23.7111 0.20908 24.2765 0.588586 24.728C0.968091 25.1795 1.49589 25.4894 2.08273 25.6052L14.2364 27.9749C14.4073 28.0084 14.5834 28.0084 14.7544 27.9749L26.912 25.6039C27.4996 25.4892 28.0284 25.18 28.409 24.7286C28.7895 24.2773 28.9983 23.7116 29 23.1274V2.52665C29.0006 2.15257 28.9157 1.78306 28.7516 1.44495C28.5874 1.10684 28.3481 0.808618 28.0509 0.571956ZM14.5 25.4047L2.63636 23.1274L2.61923 2.57806L13.1818 4.63685V7.43845C13.1818 7.77929 13.3207 8.10616 13.5679 8.34718C13.8151 8.58819 14.1504 8.72358 14.5 8.72358C14.8496 8.72358 15.1849 8.58819 15.4321 8.34718C15.6793 8.10616 15.8182 7.77929 15.8182 7.43845V4.63171L26.3636 2.52665L26.3992 23.0889L14.5 25.4047Z" fill="#76788F"/>
<path d="M23.4085 8.50696L18.1357 9.7921C17.9621 9.82745 17.7975 9.89661 17.6519 9.99544C17.5063 10.0943 17.3827 10.2207 17.2884 10.3673C17.1941 10.5138 17.1312 10.6774 17.1033 10.8482C17.0754 11.019 17.0832 11.1935 17.1262 11.3614C17.1691 11.5292 17.2464 11.6868 17.3533 11.8248C17.4603 11.9628 17.5947 12.0784 17.7485 12.1645C17.9024 12.2507 18.0725 12.3056 18.2486 12.3262C18.4248 12.3467 18.6034 12.3324 18.7737 12.284L24.0465 10.9988C24.2201 10.9635 24.3847 10.8943 24.5303 10.7955C24.6759 10.6967 24.7995 10.5702 24.8938 10.4237C24.988 10.2772 25.051 10.1136 25.0789 9.94277C25.1068 9.77195 25.099 9.5974 25.056 9.42959C25.0131 9.26177 24.9358 9.10414 24.8288 8.96613C24.7219 8.82813 24.5875 8.71259 24.4336 8.62644C24.2798 8.54029 24.1097 8.4853 23.9335 8.46477C23.7574 8.44424 23.5788 8.45859 23.4085 8.50696Z" fill="#76788F"/>
<path d="M23.4085 16.2177L18.1357 17.5028C17.9621 17.5382 17.7975 17.6073 17.6519 17.7061C17.5063 17.805 17.3827 17.9314 17.2884 18.078C17.1941 18.2245 17.1312 18.3881 17.1033 18.5589C17.0754 18.7297 17.0832 18.9043 17.1262 19.0721C17.1691 19.2399 17.2464 19.3975 17.3533 19.5355C17.4603 19.6735 17.5947 19.7891 17.7485 19.8752C17.9024 19.9614 18.0725 20.0164 18.2486 20.0369C18.4248 20.0574 18.6034 20.0431 18.7737 19.9947L24.0465 18.7096C24.3736 18.6167 24.6511 18.4039 24.8209 18.1158C24.9906 17.8277 25.0393 17.4868 24.9568 17.1645C24.8742 16.8421 24.6669 16.5635 24.3782 16.387C24.0896 16.2105 23.742 16.1498 23.4085 16.2177Z" fill="#76788F"/>
</svg>
