<svg width="23" height="20" viewBox="0 0 23 20" fill="none" xmlns="http://www.w3.org/2000/svg">
<path d="M11.8085 19.8745C11.6381 20.042 11.3622 20.0418 11.1918 19.8742C11.0214 19.7066 1.84796 10.6643 1.84796 10.6643C0.656758 9.49109 -0.00760531 7.9043 6.56981e-05 6.20445C6.56981e-05 4.51242 0.656759 2.93291 1.85563 1.75975C4.22295 -0.586583 8.49899 -0.586583 10.8967 1.75975L11.1899 2.05574C11.3603 2.22788 11.6408 2.22869 11.8123 2.05763L12.1109 1.75975C14.5087 -0.586583 18.7696 -0.586583 21.1674 1.75975C23.6109 4.1738 23.6109 8.24993 21.1674 10.664V10.6715L11.8085 19.8745ZM6.36864 1.86525C5.16978 1.86525 4.05501 2.30883 3.23778 3.12125C2.40547 3.9334 1.9548 5.03155 1.9548 6.21227C1.94713 7.39299 2.4052 8.49088 3.23778 9.3033L11.1918 17.1515C11.3619 17.3193 11.6381 17.3196 11.8088 17.152L19.7776 9.31085C21.4805 7.62639 21.4805 4.79843 19.7776 3.12907C18.128 1.48966 15.15 1.48966 13.5008 3.12907L11.809 4.78872C11.6383 4.956 11.3622 4.95546 11.1923 4.78764L9.50718 3.12152C8.68227 2.3091 7.56751 1.86525 6.36864 1.86525Z" fill="url(#paint0_linear_1637_584)"/>
<defs>
<linearGradient id="paint0_linear_1637_584" x1="-2.58163" y1="10" x2="26.9898" y2="10" gradientUnits="userSpaceOnUse">
<stop stop-color="#A868B7"/>
<stop offset="1" stop-color="#484D77"/>
</linearGradient>
</defs>
</svg>
