<svg width="11" height="18" viewBox="0 0 11 18" fill="none" xmlns="http://www.w3.org/2000/svg">
<path d="M2.17417 0.344979C1.93738 0.121755 1.63601 -2.72597e-06 1.28083 -2.75703e-06C0.570453 -2.81913e-06 3.43483e-06 0.527617 3.37629e-06 1.19729C3.34702e-06 1.53213 0.150688 1.83652 0.398241 2.0699L7.93249 9.01014L0.39824 15.9301C0.150686 16.1635 2.0404e-06 16.478 2.01202e-06 16.8027C1.95347e-06 17.4724 0.570452 18 1.28082 18C1.63601 18 1.93738 17.8782 2.17417 17.655L10.5479 9.94363C10.8493 9.67982 10.9892 9.35513 11 9C11 8.64487 10.8493 8.34047 10.5479 8.06651L2.17417 0.344979Z" fill="url(#paint0_linear_1217_4585)"/>
<defs>
<linearGradient id="paint0_linear_1217_4585" x1="12.2347" y1="9" x2="-1.90816" y2="9" gradientUnits="userSpaceOnUse">
<stop stop-color="#A868B7"/>
<stop offset="1" stop-color="#484D77"/>
</linearGradient>
</defs>
</svg>
