<svg width="17" height="16" viewBox="0 0 17 16" fill="none" xmlns="http://www.w3.org/2000/svg">
<path d="M12.2777 0.000478019C11.5442 0.0151088 10.8239 0.205689 10.1724 0.557452C9.52086 0.909214 8.95576 1.41271 8.52084 2.02893C8.09452 1.39308 7.52543 0.875769 6.86327 0.522179C6.2011 0.168589 5.46602 -0.0105255 4.7222 0.000478019C2.11835 0.000478019 0 2.15481 0 4.80286C0 10.0264 7.87027 15.5592 8.20532 15.7922L8.50414 16L8.80038 15.7881C9.13518 15.5488 17 9.86616 17 4.80286C17 2.15481 14.8816 0.000478019 12.2777 0.000478019ZM8.49611 14.6536C7.07322 13.6004 1.0625 8.90753 1.0625 4.80286C1.0625 2.76595 2.70424 1.10872 4.7222 1.10872C5.42257 1.09585 6.1105 1.30275 6.69677 1.7026C7.28305 2.10245 7.74062 2.6768 8.01017 3.35118L8.47363 4.50343L8.98119 3.37156C9.27381 2.71135 9.73755 2.14961 10.3201 1.74976C10.9026 1.34991 11.5806 1.12787 12.2777 1.10872C14.2958 1.10872 15.9375 2.76595 15.9375 4.80286C15.9375 8.77622 9.9158 13.5772 8.49611 14.6536Z" fill="#F73C25"/>
<path d="M8.49611 14.6536C7.07322 13.6004 1.0625 8.90753 1.0625 4.80286C1.0625 2.76595 2.70424 1.10872 4.7222 1.10872C5.42257 1.09585 6.1105 1.30275 6.69677 1.7026C7.28305 2.10245 7.74062 2.6768 8.01017 3.35118L8.47363 4.50343L8.98119 3.37156C9.27381 2.71135 9.73755 2.14961 10.3201 1.74976C10.9026 1.34991 11.5806 1.12787 12.2777 1.10872C14.2958 1.10872 15.9375 2.76595 15.9375 4.80286C15.9375 8.77622 9.9158 13.5772 8.49611 14.6536Z" fill="#F73C25"/>
</svg>
