<svg width="26" height="26" viewBox="0 0 26 26" fill="none" xmlns="http://www.w3.org/2000/svg">
<path d="M13.7967 23.9456C15.6531 23.8109 17.445 23.2082 19.0047 22.1939C20.5644 21.1795 21.8409 19.7867 22.7148 18.1457C23.5886 16.5046 24.0312 14.6691 24.0012 12.8108C23.9712 10.9524 23.4695 9.1321 22.5431 7.52007C21.6167 5.90804 20.2959 4.55702 18.7043 3.59342C17.1126 2.62983 15.3022 2.08516 13.4423 2.01038C11.5825 1.93561 9.734 2.33317 8.06991 3.16587C6.40583 3.99856 4.9805 5.23918 3.92731 6.77162H7.93472C8.20348 6.77162 8.46123 6.87823 8.65128 7.06798C8.84132 7.25774 8.94809 7.51511 8.94809 7.78347C8.94809 8.05183 8.84132 8.30919 8.65128 8.49895C8.46123 8.68871 8.20348 8.79532 7.93472 8.79532H1.99018C1.72121 8.79552 1.46318 8.68903 1.27284 8.49927C1.08251 8.30951 0.975461 8.05203 0.975254 7.78347V1.85693C0.975254 1.58816 1.08218 1.3304 1.27252 1.14035C1.46285 0.950304 1.721 0.843536 1.99018 0.843536C2.25935 0.843536 2.5175 0.950304 2.70783 1.14035C2.89817 1.3304 3.0051 1.58816 3.0051 1.85693V4.64594C4.9431 2.33877 7.62316 0.774922 10.5876 0.221477C13.552 -0.331969 16.6169 0.15931 19.2588 1.61142C21.9008 3.06352 23.956 5.38639 25.0734 8.18332C26.1907 10.9802 26.3011 14.0778 25.3854 16.9469C24.4698 19.816 22.5851 22.2787 20.0531 23.9145C17.5211 25.5504 14.4989 26.2578 11.5026 25.916C8.50632 25.5741 5.72179 24.2043 3.62456 22.0404C1.52733 19.8765 0.247476 17.0528 0.00357132 14.0514C-0.00800124 13.9163 0.00862322 13.7802 0.0523941 13.6518C0.0961651 13.5234 0.166131 13.4055 0.25787 13.3055C0.349608 13.2055 0.461126 13.1256 0.585374 13.0708C0.709622 13.016 0.8439 12.9876 0.979722 12.9873C1.24146 12.9854 1.49442 13.0814 1.68888 13.2564C1.88334 13.4313 2.00523 13.6725 2.03059 13.9327C2.28551 16.8087 3.66152 19.4696 5.86225 21.3424C8.06297 23.2152 10.9123 24.1501 13.7967 23.9456ZM13.0093 5.44527C12.7404 5.44507 12.4823 5.55156 12.292 5.74132C12.1017 5.93108 11.9946 6.18856 11.9944 6.45712V12.9872C11.9944 13.1202 12.0207 13.2518 12.0717 13.3745C12.1227 13.4973 12.1975 13.6088 12.2917 13.7027L16.9233 18.3202C17.1134 18.5103 17.3712 18.6172 17.6402 18.6174C17.9092 18.6176 18.1672 18.5111 18.3575 18.3213C18.5479 18.1315 18.6549 17.8741 18.6551 17.6055C18.6553 17.3369 18.5486 17.0793 18.3586 16.8893L14.0242 12.5681V6.45711C14.024 6.18855 13.917 5.93107 13.7267 5.74131C13.5363 5.55155 13.2783 5.44507 13.0093 5.44527Z" fill="white"/>
</svg>
