<svg width="30" height="27" viewBox="0 0 30 27" fill="none" xmlns="http://www.w3.org/2000/svg">
<path d="M25.0963 9.32695L15.8231 0.327192C15.6057 0.117768 15.3121 0 15.0057 0C14.6996 0 14.4057 0.117768 14.1886 0.327192L0.278737 13.8268C0.0230996 14.1166 -0.0638369 14.5121 0.0476805 14.8777C0.15894 15.2434 0.453643 15.5294 0.830342 15.6373C1.20707 15.7455 1.61459 15.6612 1.91319 15.4131L4.56759 12.837V23.6251C4.56759 24.5203 4.93397 25.3786 5.586 26.0116C6.23828 26.6444 7.12264 27 8.04506 27H21.9549C22.8774 27 23.7617 26.6444 24.414 26.0116C25.066 25.3786 25.4324 24.5203 25.4324 23.6251V12.837L28.0868 15.4131C28.3854 15.6612 28.7929 15.7455 29.1697 15.6373C29.5464 15.5293 29.8411 15.2433 29.9523 14.8777C30.0638 14.5121 29.9769 14.1166 29.7213 13.8268L25.0963 9.32695ZM23.1141 23.6256C23.1141 23.9239 22.992 24.2102 22.7746 24.4211C22.5573 24.6321 22.2623 24.7506 21.955 24.7506H8.04508C7.7377 24.7506 7.44273 24.6321 7.22539 24.4211C7.00806 24.2102 6.88593 23.9239 6.88593 23.6256V10.5876L15 2.71277L23.1141 10.5876V23.6256Z" fill="#76788F"/>
</svg>
