<svg width="15" height="15" viewBox="0 0 15 15" fill="none" xmlns="http://www.w3.org/2000/svg">
<path d="M4.16667 0C1.8691 0 0 1.8691 0 4.16667V10.8333C0 13.1309 1.8691 15 4.16667 15H10.8333C13.1309 15 15 13.1309 15 10.8333V4.16667C15 1.8691 13.1309 0 10.8333 0H4.16667ZM4.16667 1.66667H10.8333C12.2117 1.66667 13.3333 2.78829 13.3333 4.16667V10.8333C13.3333 12.2117 12.2117 13.3333 10.8333 13.3333H4.16667C2.78829 13.3333 1.66667 12.2117 1.66667 10.8333V4.16667C1.66667 2.78829 2.78829 1.66667 4.16667 1.66667ZM11.6667 2.5C11.2065 2.5 10.8333 2.87313 10.8333 3.33333C10.8333 3.79354 11.2065 4.16667 11.6667 4.16667C12.1269 4.16667 12.5 3.79354 12.5 3.33333C12.5 2.87313 12.1269 2.5 11.6667 2.5ZM7.5 3.33333C5.20243 3.33333 3.33333 5.20243 3.33333 7.5C3.33333 9.79757 5.20243 11.6667 7.5 11.6667C9.79757 11.6667 11.6667 9.79757 11.6667 7.5C11.6667 5.20243 9.79757 3.33333 7.5 3.33333ZM7.5 5C8.87838 5 10 6.12162 10 7.5C10 8.87838 8.87838 10 7.5 10C6.12162 10 5 8.87838 5 7.5C5 6.12162 6.12162 5 7.5 5Z" fill="#76788F"/>
</svg>
