<svg width="13" height="22" viewBox="0 0 13 22" fill="none" xmlns="http://www.w3.org/2000/svg">
<path d="M5.50523 4.50698L1.70559 13.4068L7.15096 11.8125C7.57797 11.6874 8.00384 12.0083 7.96508 12.4259L7.49479 17.493L11.2944 8.59323L5.84906 10.1875C5.42205 10.3126 4.99618 9.99168 5.03494 9.57411L5.50523 4.50698ZM0.817855 14.9013C0.312104 15.0494 -0.15044 14.581 0.046349 14.1201L5.91609 0.371577C6.18483 -0.257881 7.18923 -0.0339459 7.12655 0.641453L6.36928 8.80059L12.1822 7.09867C12.6879 6.9506 13.1505 7.41897 12.9537 7.87991L7.08393 21.6284C6.81519 22.2579 5.81079 22.0339 5.87347 21.3585L6.63074 13.1994L0.817855 14.9013Z" fill="#F8D44D"/>
<path d="M5.50523 4.50698L1.70559 13.4068L7.15096 11.8125C7.57797 11.6874 8.00384 12.0083 7.96508 12.4259L7.49479 17.493L11.2944 8.59323L5.84906 10.1875C5.42205 10.3126 4.99618 9.99168 5.03494 9.57411L5.50523 4.50698Z" fill="#F8D44D"/>
</svg>
