<svg width="157" height="28" viewBox="0 0 157 28" fill="none" xmlns="http://www.w3.org/2000/svg">
<path d="M9.39055 27.2346C7.75935 27.2346 6.28456 26.9553 4.96619 26.3967C3.67016 25.838 2.64228 25.0336 1.88254 23.9834C1.1228 22.9332 0.731759 21.693 0.709414 20.2629H5.7371C5.80414 21.2237 6.13932 21.9835 6.74264 22.5421C7.36831 23.1007 8.21743 23.3801 9.29 23.3801C10.3849 23.3801 11.2452 23.1231 11.8709 22.6092C12.4965 22.0729 12.8094 21.3802 12.8094 20.531C12.8094 19.8383 12.5971 19.2685 12.1725 18.8216C11.748 18.3747 11.2117 18.0284 10.5637 17.7826C9.93801 17.5144 9.06655 17.2239 7.94928 16.9111C6.4298 16.4642 5.18964 16.0285 4.22879 15.6039C3.29029 15.157 2.47469 14.4978 1.78199 13.6264C1.11163 12.7325 0.776449 11.5482 0.776449 10.0735C0.776449 8.68805 1.1228 7.4814 1.8155 6.45352C2.50821 5.42564 3.48023 4.64355 4.73156 4.10727C5.9829 3.54864 7.413 3.26932 9.02186 3.26932C11.4351 3.26932 13.3904 3.86147 14.8875 5.04577C16.407 6.20772 17.2449 7.83893 17.4013 9.93938H12.2396C12.1949 9.13495 11.8485 8.47577 11.2005 7.96183C10.5749 7.42554 9.7369 7.1574 8.68668 7.1574C7.77052 7.1574 7.03313 7.39202 6.47449 7.86127C5.93821 8.33052 5.67006 9.01205 5.67006 9.90586C5.67006 10.5315 5.87117 11.0566 6.27339 11.4812C6.69795 11.8834 7.21189 12.2186 7.81521 12.4867C8.44088 12.7325 9.31234 13.023 10.4296 13.3582C11.9491 13.8051 13.1892 14.252 14.1501 14.6989C15.1109 15.1458 15.9377 15.8162 16.6304 16.71C17.3231 17.6038 17.6695 18.7769 17.6695 20.2294C17.6695 21.4807 17.3455 22.6427 16.6975 23.7152C16.0494 24.7878 15.0998 25.6481 13.8484 26.2961C12.5971 26.9218 11.1111 27.2346 9.39055 27.2346ZM20.5311 17.7155C20.5311 15.7938 20.9221 14.1179 21.7042 12.6879C22.4863 11.2354 23.57 10.1181 24.9554 9.33606C26.3408 8.53163 27.9274 8.12942 29.715 8.12942C32.0165 8.12942 33.9159 8.71039 35.413 9.87235C36.9325 11.012 37.9492 12.6208 38.4631 14.6989H33.4019C33.1338 13.8945 32.6757 13.2688 32.0277 12.8219C31.402 12.3527 30.62 12.118 29.6815 12.118C28.3407 12.118 27.2793 12.6096 26.4973 13.5928C25.7152 14.5537 25.3241 15.9279 25.3241 17.7155C25.3241 19.4808 25.7152 20.855 26.4973 21.8382C27.2793 22.7991 28.3407 23.2795 29.6815 23.2795C31.5808 23.2795 32.821 22.4304 33.4019 20.7322H38.4631C37.9492 22.7432 36.9325 24.3409 35.413 25.5252C33.8935 26.7095 31.9942 27.3017 29.715 27.3017C27.9274 27.3017 26.3408 26.9106 24.9554 26.1285C23.57 25.3241 22.4863 24.2068 21.7042 22.7767C20.9221 21.3243 20.5311 19.6372 20.5311 17.7155ZM59.1626 17.3133C59.1626 17.9837 59.1179 18.587 59.0285 19.1233H45.4537C45.5655 20.464 46.0347 21.5142 46.8615 22.274C47.6883 23.0337 48.705 23.4136 49.9116 23.4136C51.6545 23.4136 52.8947 22.665 53.6321 21.1679H58.6933C58.157 22.9555 57.1291 24.4303 55.6097 25.5922C54.0902 26.7319 52.2243 27.3017 50.0122 27.3017C48.2245 27.3017 46.6157 26.9106 45.1856 26.1285C43.7778 25.3241 42.6717 24.1957 41.8673 22.7432C41.0852 21.2908 40.6942 19.6149 40.6942 17.7155C40.6942 15.7938 41.0852 14.1068 41.8673 12.6543C42.6494 11.2019 43.7443 10.0846 45.1521 9.30254C46.5598 8.52046 48.1799 8.12942 50.0122 8.12942C51.7774 8.12942 53.3528 8.50929 54.7382 9.26902C56.1459 10.0288 57.2297 11.1125 57.9894 12.5203C58.7715 13.9057 59.1626 15.5034 59.1626 17.3133ZM54.3025 15.9726C54.2801 14.766 53.8444 13.8051 52.9953 13.0901C52.1461 12.3527 51.1071 11.984 49.8781 11.984C48.7161 11.984 47.7329 12.3415 46.9285 13.0565C46.1464 13.7493 45.666 14.7213 45.4872 15.9726H54.3025ZM72.8777 8.16293C75.0898 8.16293 76.8775 8.86681 78.2405 10.2746C79.6036 11.66 80.2851 13.604 80.2851 16.1067V27H75.5926V16.7435C75.5926 15.2687 75.2239 14.1403 74.4865 13.3582C73.7491 12.5538 72.7436 12.1516 71.4699 12.1516C70.1739 12.1516 69.146 12.5538 68.3863 13.3582C67.6489 14.1403 67.2802 15.2687 67.2802 16.7435V27H62.5877V8.43108H67.2802V10.7438C67.9058 9.93938 68.6991 9.31372 69.6599 8.86681C70.6431 8.39756 71.7157 8.16293 72.8777 8.16293ZM83.5408 17.6485C83.5408 15.7715 83.9095 14.1068 84.6469 12.6543C85.4066 11.2019 86.4234 10.0846 87.697 9.30254C88.9931 8.52046 90.4343 8.12942 92.0208 8.12942C93.4063 8.12942 94.6129 8.40873 95.6408 8.96736C96.691 9.526 97.529 10.2299 98.1546 11.079V8.43108H102.881V27H98.1546V24.285C97.5513 25.1565 96.7134 25.8827 95.6408 26.4637C94.5906 27.0223 93.3727 27.3017 91.9873 27.3017C90.4232 27.3017 88.9931 26.8994 87.697 26.095C86.4234 25.2906 85.4066 24.1622 84.6469 22.7097C83.9095 21.2349 83.5408 19.5479 83.5408 17.6485ZM98.1546 17.7155C98.1546 16.5759 97.9312 15.6039 97.4843 14.7995C97.0374 13.9727 96.434 13.347 95.6743 12.9225C94.9146 12.4756 94.099 12.2521 93.2275 12.2521C92.356 12.2521 91.5516 12.4644 90.8142 12.889C90.0768 13.3135 89.4735 13.9392 89.0042 14.766C88.5573 15.5704 88.3339 16.5312 88.3339 17.6485C88.3339 18.7658 88.5573 19.749 89.0042 20.5981C89.4735 21.4249 90.0768 22.0617 90.8142 22.5086C91.5739 22.9555 92.3784 23.179 93.2275 23.179C94.099 23.179 94.9146 22.9667 95.6743 22.5421C96.434 22.0952 97.0374 21.4695 97.4843 20.6651C97.9312 19.8383 98.1546 18.8551 98.1546 17.7155ZM112.156 11.3136C112.76 10.3304 113.542 9.55951 114.502 9.00088C115.486 8.44225 116.603 8.16293 117.854 8.16293V13.0901H116.614C115.139 13.0901 114.022 13.4364 113.262 14.1291C112.525 14.8218 112.156 16.0285 112.156 17.7491V27H107.464V8.43108H112.156V11.3136ZM123.093 27.2346C122.244 27.2346 121.54 26.9777 120.981 26.4637C120.445 25.9274 120.177 25.2682 120.177 24.4862C120.177 23.7041 120.445 23.0561 120.981 22.5421C121.54 22.0058 122.244 21.7377 123.093 21.7377C123.92 21.7377 124.601 22.0058 125.138 22.5421C125.674 23.0561 125.942 23.7041 125.942 24.4862C125.942 25.2682 125.674 25.9274 125.138 26.4637C124.601 26.9777 123.92 27.2346 123.093 27.2346ZM132.101 6.2189C131.275 6.2189 130.582 5.96192 130.023 5.44798C129.487 4.9117 129.219 4.25251 129.219 3.47043C129.219 2.68834 129.487 2.04033 130.023 1.52639C130.582 0.9901 131.275 0.721957 132.101 0.721957C132.928 0.721957 133.61 0.9901 134.146 1.52639C134.705 2.04033 134.984 2.68834 134.984 3.47043C134.984 4.25251 134.705 4.9117 134.146 5.44798C133.61 5.96192 132.928 6.2189 132.101 6.2189ZM134.414 8.43108V27H129.722V8.43108H134.414ZM147.296 27.3017C145.508 27.3017 143.899 26.9106 142.469 26.1285C141.039 25.3241 139.911 24.1957 139.084 22.7432C138.279 21.2908 137.877 19.6149 137.877 17.7155C137.877 15.8162 138.291 14.1403 139.117 12.6879C139.967 11.2354 141.117 10.1181 142.57 9.33606C144.022 8.53163 145.642 8.12942 147.43 8.12942C149.217 8.12942 150.838 8.53163 152.29 9.33606C153.742 10.1181 154.882 11.2354 155.709 12.6879C156.558 14.1403 156.982 15.8162 156.982 17.7155C156.982 19.6149 156.547 21.2908 155.675 22.7432C154.826 24.1957 153.664 25.3241 152.189 26.1285C150.737 26.9106 149.106 27.3017 147.296 27.3017ZM147.296 23.2125C148.145 23.2125 148.938 23.0114 149.676 22.6092C150.435 22.1846 151.039 21.5589 151.486 20.7322C151.932 19.9054 152.156 18.8998 152.156 17.7155C152.156 15.9503 151.687 14.5984 150.748 13.6599C149.832 12.699 148.704 12.2186 147.363 12.2186C146.022 12.2186 144.894 12.699 143.978 13.6599C143.084 14.5984 142.637 15.9503 142.637 17.7155C142.637 19.4808 143.073 20.8439 143.944 21.8047C144.838 22.7432 145.955 23.2125 147.296 23.2125Z" fill="url(#paint0_linear_2115_2258)"/>
<defs>
<linearGradient id="paint0_linear_2115_2258" x1="-18.9592" y1="15.5" x2="186.755" y2="15.5" gradientUnits="userSpaceOnUse">
<stop stop-color="#A868B7"/>
<stop offset="1" stop-color="#484D77"/>
</linearGradient>
</defs>
</svg>
