<svg width="124" height="55" viewBox="0 0 124 55" fill="none" xmlns="http://www.w3.org/2000/svg">
<path d="M15.4433 7.42102C14.9981 6.6048 14.3859 5.98335 13.6068 5.55669C12.8277 5.13003 11.9187 4.9167 10.8799 4.9167C9.72975 4.9167 8.70947 5.17641 7.81904 5.69582C6.92862 6.21523 6.23298 6.95726 5.73211 7.92188C5.23125 8.88651 4.98081 9.99954 4.98081 11.261C4.98081 12.5595 5.23125 13.6911 5.73211 14.6557C6.25153 15.6203 6.96572 16.3624 7.8747 16.8818C8.78367 17.4012 9.84105 17.6609 11.0468 17.6609C12.5309 17.6609 13.7459 17.2713 14.692 16.4922C15.6381 15.6946 16.2595 14.5908 16.5563 13.181H9.87815V10.2036H20.3963V13.5983C20.1366 14.9525 19.5801 16.2047 18.7268 17.3548C17.8734 18.505 16.7697 19.4325 15.4155 20.1374C14.0798 20.8238 12.5773 21.167 10.9077 21.167C9.0341 21.167 7.33673 20.7496 5.81559 19.9148C4.313 19.0615 3.12576 17.8835 2.25389 16.3809C1.40056 14.8783 0.973902 13.1717 0.973902 11.261C0.973902 9.35027 1.40056 7.64362 2.25389 6.14103C3.12576 4.61989 4.313 3.44193 5.81559 2.60716C7.33673 1.75383 9.02483 1.32717 10.8799 1.32717C13.0688 1.32717 14.9703 1.86514 16.5842 2.94107C18.1981 3.99845 19.3111 5.49176 19.9233 7.42102H15.4433ZM39.4418 7.58797C39.4418 8.6268 39.1913 9.6007 38.6905 10.5097C38.2082 11.4187 37.4383 12.1514 36.3809 12.7079C35.3421 13.2644 34.025 13.5427 32.4297 13.5427H29.174V21H25.2784V1.5776H32.4297C33.9323 1.5776 35.2122 1.83731 36.2696 2.35673C37.327 2.87614 38.1154 3.59034 38.6348 4.49931C39.1728 5.40829 39.4418 6.43784 39.4418 7.58797ZM32.2627 10.3984C33.3386 10.3984 34.1363 10.1572 34.6557 9.67491C35.1751 9.17404 35.4349 8.4784 35.4349 7.58797C35.4349 5.69582 34.3775 4.74974 32.2627 4.74974H29.174V10.3984H32.2627ZM57.4248 1.5776V4.72192H52.2493V21H48.3536V4.72192H43.178V1.5776H57.4248Z" fill="white"/>
<path d="M18.7338 36.6433C18.1975 35.6601 17.4601 34.9115 16.5216 34.3976C15.5831 33.8836 14.4882 33.6266 13.2369 33.6266C11.8514 33.6266 10.6225 33.9395 9.54988 34.5651C8.47731 35.1908 7.63936 36.0846 7.03604 37.2466C6.43272 38.4085 6.13105 39.7493 6.13105 41.2687C6.13105 42.8329 6.43272 44.196 7.03604 45.3579C7.66171 46.5199 8.522 47.4137 9.61692 48.0393C10.7118 48.665 11.9855 48.9779 13.438 48.9779C15.2256 48.9779 16.6892 48.5086 17.8288 47.5701C18.9684 46.6093 19.717 45.2797 20.0745 43.5815H12.0302V39.9951H24.7V44.0842C24.3871 45.7154 23.7168 47.2237 22.6889 48.6092C21.661 49.9946 20.3315 51.1118 18.7003 51.9609C17.0914 52.7877 15.2814 53.2011 13.2704 53.2011C11.0135 53.2011 8.9689 52.6983 7.13659 51.6928C5.32662 50.6649 3.89653 49.246 2.8463 47.436C1.81842 45.6261 1.30447 43.5703 1.30447 41.2687C1.30447 38.9672 1.81842 36.9114 2.8463 35.1014C3.89653 33.2691 5.32662 31.8502 7.13659 30.8447C8.9689 29.8168 11.0023 29.3028 13.2369 29.3028C15.8736 29.3028 18.164 29.9508 20.108 31.2469C22.0521 32.5206 23.3928 34.3194 24.1302 36.6433H18.7338ZM26.9651 43.6485C26.9651 41.7715 27.3338 40.1068 28.0711 38.6543C28.8309 37.2019 29.8476 36.0846 31.1213 35.3025C32.4173 34.5205 33.8586 34.1294 35.4451 34.1294C36.8305 34.1294 38.0371 34.4087 39.065 34.9674C40.1152 35.526 40.9532 36.2299 41.5789 37.079V34.4311H46.3049V53H41.5789V50.285C40.9755 51.1565 40.1376 51.8827 39.065 52.4637C38.0148 53.0223 36.797 53.3017 35.4116 53.3017C33.8474 53.3017 32.4173 52.8994 31.1213 52.095C29.8476 51.2906 28.8309 50.1622 28.0711 48.7097C27.3338 47.2349 26.9651 45.5479 26.9651 43.6485ZM41.5789 43.7155C41.5789 42.5759 41.3554 41.6039 40.9085 40.7995C40.4616 39.9727 39.8583 39.347 39.0985 38.9225C38.3388 38.4756 37.5232 38.2521 36.6517 38.2521C35.7803 38.2521 34.9758 38.4644 34.2384 38.889C33.501 39.3135 32.8977 39.9392 32.4285 40.766C31.9816 41.5704 31.7581 42.5312 31.7581 43.6485C31.7581 44.7658 31.9816 45.749 32.4285 46.5981C32.8977 47.4249 33.501 48.0617 34.2384 48.5086C34.9982 48.9555 35.8026 49.179 36.6517 49.179C37.5232 49.179 38.3388 48.9667 39.0985 48.5421C39.8583 48.0952 40.4616 47.4695 40.9085 46.6651C41.3554 45.8383 41.5789 44.8551 41.5789 43.7155ZM73.9483 34.1629C76.2275 34.1629 78.0598 34.8668 79.4452 36.2746C80.853 37.66 81.5568 39.604 81.5568 42.1067V53H76.8643V42.7435C76.8643 41.2911 76.4956 40.185 75.7582 39.4252C75.0208 38.6432 74.0153 38.2521 72.7416 38.2521C71.4679 38.2521 70.4512 38.6432 69.6915 39.4252C68.9541 40.185 68.5854 41.2911 68.5854 42.7435V53H63.8929V42.7435C63.8929 41.2911 63.5242 40.185 62.7868 39.4252C62.0494 38.6432 61.0439 38.2521 59.7702 38.2521C58.4742 38.2521 57.4463 38.6432 56.6865 39.4252C55.9491 40.185 55.5804 41.2911 55.5804 42.7435V53H50.8879V34.4311H55.5804V36.6768C56.1838 35.8947 56.9547 35.2802 57.8932 34.8333C58.854 34.3864 59.9043 34.1629 61.0439 34.1629C62.4963 34.1629 63.7923 34.4758 64.9319 35.1014C66.0716 35.7048 66.9542 36.5762 67.5799 37.7158C68.1832 36.6433 69.0546 35.783 70.1943 35.135C71.3562 34.4869 72.6075 34.1629 73.9483 34.1629ZM103.271 43.3133C103.271 43.9837 103.227 44.587 103.137 45.1233H89.5626C89.6744 46.464 90.1436 47.5142 90.9704 48.274C91.7972 49.0337 92.8139 49.4136 94.0205 49.4136C95.7634 49.4136 97.0036 48.665 97.741 47.1679H102.802C102.266 48.9555 101.238 50.4303 99.7186 51.5922C98.1991 52.7319 96.3333 53.3017 94.1211 53.3017C92.3334 53.3017 90.7246 52.9106 89.2945 52.1285C87.8867 51.3241 86.7806 50.1957 85.9762 48.7432C85.1941 47.2908 84.8031 45.6149 84.8031 43.7155C84.8031 41.7938 85.1941 40.1068 85.9762 38.6543C86.7583 37.2019 87.8532 36.0846 89.261 35.3025C90.6687 34.5205 92.2888 34.1294 94.1211 34.1294C95.8863 34.1294 97.4617 34.5093 98.8471 35.269C100.255 36.0288 101.339 37.1125 102.098 38.5203C102.88 39.9057 103.271 41.5034 103.271 43.3133ZM98.4114 41.9726C98.389 40.766 97.9533 39.8051 97.1042 39.0901C96.255 38.3527 95.216 37.984 93.987 37.984C92.825 37.984 91.8419 38.3415 91.0374 39.0565C90.2553 39.7493 89.7749 40.7213 89.5962 41.9726H98.4114ZM113.802 53.3017C112.283 53.3017 110.92 53.0335 109.713 52.4972C108.507 51.9386 107.546 51.19 106.831 50.2515C106.138 49.313 105.758 48.274 105.691 47.1344H110.417C110.506 47.8494 110.853 48.4416 111.456 48.9108C112.082 49.3801 112.853 49.6147 113.769 49.6147C114.663 49.6147 115.355 49.4359 115.847 49.0784C116.361 48.7209 116.618 48.2628 116.618 47.7042C116.618 47.1008 116.305 46.6539 115.679 46.3635C115.076 46.0506 114.104 45.7154 112.763 45.3579C111.378 45.0227 110.238 44.6764 109.344 44.3189C108.473 43.9613 107.713 43.4139 107.065 42.6765C106.44 41.9391 106.127 40.9447 106.127 39.6934C106.127 38.6655 106.417 37.727 106.998 36.8779C107.602 36.0288 108.451 35.3584 109.546 34.8668C110.663 34.3752 111.97 34.1294 113.467 34.1294C115.679 34.1294 117.445 34.688 118.763 35.8053C120.081 36.9002 120.808 38.3862 120.942 40.2632H116.45C116.383 39.5258 116.07 38.9448 115.512 38.5203C114.975 38.0734 114.249 37.8499 113.333 37.8499C112.484 37.8499 111.825 38.0063 111.356 38.3192C110.909 38.632 110.685 39.0677 110.685 39.6264C110.685 40.252 110.998 40.7324 111.624 41.0676C112.249 41.3805 113.221 41.7045 114.54 42.0396C115.88 42.3748 116.987 42.7212 117.858 43.0787C118.73 43.4362 119.478 43.9949 120.104 44.7546C120.752 45.492 121.087 46.4752 121.109 47.7042C121.109 48.7767 120.808 49.7376 120.204 50.5867C119.623 51.4358 118.774 52.1062 117.657 52.5978C116.562 53.067 115.277 53.3017 113.802 53.3017Z" fill="url(#paint0_linear_501_1007)"/>
<path d="M81.1314 1.92004C80.3675 1.92004 79.635 2.22347 79.0949 2.76358C78.5548 3.30368 78.2514 4.03622 78.2514 4.80004C78.2514 5.56387 78.5548 6.29641 79.0949 6.83651C79.635 7.37662 80.3675 7.68004 81.1314 7.68004C81.8952 7.68004 82.6277 7.37662 83.1678 6.83651C83.7079 6.29641 84.0114 5.56387 84.0114 4.80004C84.0114 4.03622 83.7079 3.30368 83.1678 2.76358C82.6277 2.22347 81.8952 1.92004 81.1314 1.92004ZM80.1714 8.57629C79.8906 8.63389 79.6133 8.71486 79.3435 8.82286L70.6707 12.3029C69.8965 12.6134 69.86 13.6955 70.6117 14.0579L78.0039 17.6232C79.9795 18.576 82.2822 18.576 84.2579 17.6232L91.6501 14.0579C92.4023 13.6955 92.3662 12.6134 91.592 12.3029L82.9192 8.82286C82.6499 8.71486 82.3722 8.63435 82.0914 8.57723V13.3988C82.0914 13.9292 81.6618 14.3588 81.1314 14.3588C80.601 14.3588 80.1714 13.9292 80.1714 13.3988V8.57629ZM74.6514 12.48C75.5792 12.48 76.3314 12.9096 76.3314 13.44C76.3314 13.97 75.5792 14.4 74.6514 14.4C73.7235 14.4 72.9714 13.97 72.9714 13.44C72.9714 12.9096 73.7235 12.48 74.6514 12.48ZM70.5329 15.6272C70.2967 15.6443 70.0914 15.8405 70.0914 16.1044V17.4038C70.0914 17.5886 70.1971 17.7563 70.3642 17.836L77.5295 21.2635C79.8071 22.3526 82.4556 22.3526 84.7332 21.2635L91.8985 17.836C92.0656 17.7558 92.1714 17.5877 92.1714 17.4029V16.1072C92.1714 15.7544 91.8043 15.5219 91.487 15.676C89.6371 16.5707 84.6751 18.9675 84.6751 18.9675C83.5769 19.4975 82.351 19.7775 81.1314 19.7775C79.9117 19.7775 78.6854 19.4975 77.5867 18.9675C77.5867 18.9675 72.6204 16.5683 70.7729 15.6741C70.6938 15.6358 70.6116 15.6215 70.5329 15.6272Z" fill="white"/>
<defs>
<linearGradient id="paint0_linear_501_1007" x1="-13.6748" y1="41.5" x2="144.468" y2="41.5" gradientUnits="userSpaceOnUse">
<stop stop-color="#A868B7"/>
<stop offset="1" stop-color="#484D77"/>
</linearGradient>
</defs>
</svg>
