<svg width="93" height="95" viewBox="0 0 93 95" fill="none" xmlns="http://www.w3.org/2000/svg">
<g filter="url(#filter0_d_80_412)">
<path d="M68.7134 33.3439L61.4761 24.9401L61.3637 24.8282C60.7417 24.2874 59.9419 23.9928 59.1161 24.0001H52.1261C51.9782 23.9993 51.8316 24.0275 51.6947 24.0832C51.5577 24.1389 51.4332 24.2209 51.3282 24.3247L48.0917 27.5474C47.6705 27.9643 47.1009 28.1982 46.5071 28.1982C45.9133 28.1982 45.3437 27.9643 44.9225 27.5474L41.686 24.3247C41.581 24.2209 41.4565 24.1389 41.3195 24.0832C41.1826 24.0275 41.036 23.9993 40.8881 24.0001H33.8644C33.0386 23.9928 32.2388 24.2874 31.6168 24.8282C31.5765 24.8626 31.539 24.9001 31.5044 24.9401L24.2671 33.3439C24.1696 33.4583 24.0962 33.5909 24.0513 33.7341C24.0063 33.8772 23.9907 34.0279 24.0053 34.1772C24.02 34.3265 24.0647 34.4713 24.1367 34.603C24.2087 34.7348 24.3065 34.8508 24.4245 34.9441L30.0435 39.4202C30.2349 39.5576 30.4649 39.6316 30.7009 39.6316C30.9369 39.6316 31.1669 39.5576 31.3583 39.4202L33.1788 38.2116L33.28 39.2076C33.8286 44.7103 33.9676 50.2459 33.6958 55.769L33.0215 69.8798C33.0146 70.0319 33.039 70.1837 33.0931 70.3261C33.1472 70.4685 33.2299 70.5984 33.3362 70.7079C33.4453 70.8069 33.5729 70.8836 33.7117 70.9335C33.8505 70.9834 33.9979 71.0056 34.1453 70.9988H44.2595C44.5576 70.9988 44.8434 70.8809 45.0542 70.6711C45.2649 70.4612 45.3833 70.1766 45.3833 69.8798V62.0467C45.3833 61.7499 45.5017 61.4653 45.7125 61.2554C45.9232 61.0456 46.2091 60.9277 46.5071 60.9277C46.8052 60.9277 47.091 61.0456 47.3018 61.2554C47.5125 61.4653 47.6309 61.7499 47.6309 62.0467V69.8798C47.6309 70.1766 47.7493 70.4612 47.9601 70.6711C48.1708 70.8809 48.4567 70.9988 48.7547 70.9988H58.8689C59.0203 70.9982 59.17 70.9672 59.309 70.9076C59.4481 70.848 59.5736 70.761 59.678 70.6519C59.8788 70.4445 59.9915 70.1679 59.9927 69.8798L59.2847 55.8809C59.0129 50.3578 59.1519 44.8222 59.7005 39.3195L59.8016 38.3235L61.6222 39.5321C61.8147 39.6721 62.0469 39.7476 62.2852 39.7476C62.5236 39.7476 62.7558 39.6721 62.9483 39.5321L68.5673 35.056C68.6852 34.9618 68.7828 34.8448 68.8542 34.7122C68.9257 34.5795 68.9695 34.4338 68.9831 34.2839C69.0125 34.1171 69.0035 33.9458 68.9568 33.783C68.91 33.6202 68.8268 33.4701 68.7134 33.3439ZM34.6286 35.3022C34.4509 35.2156 34.2534 35.1773 34.0561 35.191C33.8588 35.2048 33.6686 35.2701 33.5048 35.3805L30.8076 37.1598L26.7395 33.9258L33.1564 26.4732C33.3525 26.3216 33.5936 26.2389 33.8419 26.2382H40.4049L43.3043 29.1364C43.8709 29.6941 44.5835 30.0818 45.3608 30.2554V48.6185H36.0895C36.0333 45.4181 35.8647 42.2177 35.5501 39.0397L35.2691 36.1974C35.2487 36.0059 35.179 35.8229 35.0668 35.6661C34.9546 35.5093 34.8037 35.3839 34.6286 35.3022ZM49.8785 68.7608V62.0467C49.8785 61.1563 49.5233 60.3025 48.891 59.6729C48.2588 59.0433 47.4013 58.6896 46.5071 58.6896C45.613 58.6896 44.7554 59.0433 44.1232 59.6729C43.4909 60.3025 43.1357 61.1563 43.1357 62.0467V68.7608H35.3253L35.9771 55.9369C36.0558 54.2471 36.0895 52.5798 36.1007 50.8565H56.9135C56.9135 52.5462 56.9135 54.2136 57.0483 55.9369L57.7451 68.7608H49.8785ZM62.2403 37.1598L59.5432 35.3805C59.3793 35.2701 59.1892 35.2048 58.9918 35.191C58.7945 35.1773 58.597 35.2156 58.4194 35.3022C58.2443 35.3839 58.0933 35.5093 57.9811 35.6661C57.8689 35.8229 57.7992 36.0059 57.7788 36.1974L57.4979 39.0397C57.1832 42.2177 57.0146 45.4181 56.9584 48.6185H47.6309V30.2442C48.4082 30.0706 49.1209 29.6829 49.6875 29.1252L52.5869 26.2382H59.1498C59.3981 26.2389 59.6392 26.3216 59.8354 26.4732L66.2523 33.9258L62.2403 37.1598ZM56.6213 34.0713C56.6213 34.3681 56.5029 34.6527 56.2921 34.8625C56.0814 35.0724 55.7955 35.1903 55.4975 35.1903H51.0023C50.7043 35.1903 50.4184 35.0724 50.2077 34.8625C49.9969 34.6527 49.8785 34.3681 49.8785 34.0713C49.8785 33.7745 49.9969 33.4899 50.2077 33.28C50.4184 33.0702 50.7043 32.9523 51.0023 32.9523H55.4975C55.7955 32.9523 56.0814 33.0702 56.2921 33.28C56.5029 33.4899 56.6213 33.7745 56.6213 34.0713Z" fill="white"/>
</g>
<defs>
<filter id="filter0_d_80_412" x="0" y="0" width="93" height="95" filterUnits="userSpaceOnUse" color-interpolation-filters="sRGB">
<feFlood flood-opacity="0" result="BackgroundImageFix"/>
<feColorMatrix in="SourceAlpha" type="matrix" values="0 0 0 0 0 0 0 0 0 0 0 0 0 0 0 0 0 0 127 0" result="hardAlpha"/>
<feMorphology radius="4" operator="dilate" in="SourceAlpha" result="effect1_dropShadow_80_412"/>
<feOffset/>
<feGaussianBlur stdDeviation="10"/>
<feComposite in2="hardAlpha" operator="out"/>
<feColorMatrix type="matrix" values="0 0 0 0 0.658824 0 0 0 0 0.407843 0 0 0 0 0.717647 0 0 0 1 0"/>
<feBlend mode="normal" in2="BackgroundImageFix" result="effect1_dropShadow_80_412"/>
<feBlend mode="normal" in="SourceGraphic" in2="effect1_dropShadow_80_412" result="shape"/>
</filter>
</defs>
</svg>
