<svg width="20" height="26" viewBox="0 0 20 26" fill="none" xmlns="http://www.w3.org/2000/svg">
<path d="M10 25.1854C9.5657 25.1772 9.14132 25.0541 8.77 24.8287C6.10694 23.2331 3.90059 20.9774 2.36428 18.2797C0.827965 15.582 0.0136627 12.5336 9.91628e-05 9.42912V5.49312C-0.00437407 4.99482 0.142589 4.50692 0.421535 4.09399C0.700481 3.68106 1.09825 3.36258 1.5622 3.18072L9.0775 0.179519C9.66921 -0.0598397 10.3308 -0.0598397 10.9225 0.179519L18.4378 3.18072C18.9017 3.36258 19.2995 3.68106 19.5785 4.09399C19.8574 4.50692 20.0044 4.99482 19.9999 5.49312V9.42912C19.9915 12.5289 19.1846 15.5742 17.6571 18.2715C16.1297 20.9688 13.9331 23.2271 11.2792 24.8287C10.8936 25.0626 10.451 25.186 10 25.1854ZM10 1.22502C9.83927 1.22696 9.68047 1.26039 9.5326 1.32342L2.005 4.32462C1.7596 4.41865 1.55077 4.58881 1.40911 4.81015C1.26745 5.0315 1.2004 5.2924 1.2178 5.55462V9.49062C1.24066 12.3714 2.00387 15.1979 3.43412 17.6987C4.86436 20.1995 6.9136 22.2905 9.385 23.7709C9.58049 23.8931 9.80637 23.9579 10.0369 23.9579C10.2674 23.9579 10.4933 23.8931 10.6888 23.7709C13.1599 22.2791 15.205 20.1757 16.6269 17.6637C18.0488 15.1516 18.7996 12.3157 18.8068 9.42912V5.49312C18.8242 5.2309 18.7572 4.97 18.6155 4.74865C18.4738 4.52731 18.265 4.35715 18.0196 4.26312L10.4674 1.32342C10.3195 1.26039 10.1607 1.22696 10 1.22502Z" fill="#76788F"/>
<path d="M9.99977 13.2053C9.14832 13.2053 8.31599 12.9529 7.60804 12.4798C6.90008 12.0068 6.3483 11.3344 6.02246 10.5478C5.69663 9.76116 5.61138 8.89556 5.77748 8.06047C5.94359 7.22539 6.35361 6.45831 6.95567 5.85624C7.55774 5.25418 8.32481 4.84417 9.1599 4.67806C9.99499 4.51195 10.8606 4.5972 11.6472 4.92304C12.4339 5.24887 13.1062 5.80066 13.5792 6.50861C14.0523 7.21656 14.3048 8.04889 14.3048 8.90034C14.3048 10.0421 13.8512 11.1371 13.0439 11.9444C12.2365 12.7518 11.1415 13.2053 9.99977 13.2053ZM9.99977 5.82534C9.39159 5.82534 8.79707 6.00568 8.29139 6.34357C7.78571 6.68146 7.39158 7.1617 7.15884 7.72359C6.9261 8.28547 6.8652 8.90375 6.98385 9.50024C7.1025 10.0967 7.39537 10.6446 7.82541 11.0747C8.25546 11.5047 8.80337 11.7976 9.39986 11.9163C9.99635 12.0349 10.6146 11.974 11.1765 11.7413C11.7384 11.5085 12.2187 11.1144 12.5565 10.6087C12.8944 10.103 13.0748 9.50852 13.0748 8.90034C13.0748 8.0848 12.7508 7.30266 12.1741 6.72599C11.5974 6.14931 10.8153 5.82534 9.99977 5.82534Z" fill="#76788F"/>
<path d="M15.9781 19.2568C15.4026 18.1706 14.542 17.2617 13.4888 16.6278C12.4356 15.9939 11.2296 15.659 10.0003 15.659C8.77107 15.659 7.56505 15.9939 6.51183 16.6278C5.45862 17.2617 4.59803 18.1706 4.02252 19.2568L2.94012 18.691C3.61811 17.406 4.63391 16.3305 5.87804 15.5802C7.12218 14.83 8.54748 14.4335 10.0003 14.4335C11.4532 14.4335 12.8785 14.83 14.1226 15.5802C15.3667 16.3305 16.3825 17.406 17.0605 18.691L15.9781 19.2568Z" fill="#76788F"/>
</svg>
