<svg width="67" height="40" viewBox="0 0 67 40" fill="none" xmlns="http://www.w3.org/2000/svg">
<rect width="67" height="40" rx="10" fill="#07A34E"/>
<path fill-rule="evenodd" clip-rule="evenodd" d="M40.0417 7.6257C40.1161 7.56061 40.2039 7.51871 40.3056 7.5H43.375C43.625 7.5 43.8289 7.58855 43.9861 7.76536L45.7503 9.53936C45.9169 9.70696 46 9.90249 46 10.1259V31.69C46 31.9134 45.9214 32.1042 45.7636 32.2626C45.6156 32.4207 45.435 32.5 45.2222 32.5H21.7919C21.5786 32.5 21.3936 32.421 21.2364 32.2626C21.0786 32.1042 21 31.9131 21 31.69V8.31005C21 8.08659 21.0786 7.89581 21.2364 7.73743C21.3936 7.57933 21.5836 7.5 21.8053 7.5H26.1803C26.3378 7.5 26.4631 7.54665 26.5556 7.63966C26.6203 7.69553 26.6664 7.77933 26.6944 7.89106H26.7083V16.4803C26.7175 16.6946 26.7961 16.8762 26.9444 17.025C27.0833 17.1739 27.2594 17.253 27.4722 17.2625H39.1111C39.3242 17.2625 39.5094 17.1834 39.6667 17.025C39.8239 16.8762 39.9075 16.6943 39.9167 16.4803V7.89106C39.9444 7.78882 39.9864 7.70028 40.0417 7.6257ZM37.9725 8.78518V16.0893H34.4861V8.78518H37.9725ZM42.6386 31.1729V21.285C42.6294 21.0708 42.5508 20.894 42.4025 20.7543C42.2544 20.6054 42.0736 20.5216 41.8611 20.5032H25.1667L25.0692 20.5311H25.0139C24.8381 20.5591 24.6897 20.6476 24.5694 20.7965C24.4397 20.9454 24.3747 21.1082 24.3747 21.2853H24.3611V31.1729H42.6386Z" fill="white"/>
</svg>
