<svg width="22" height="22" viewBox="0 0 22 22" fill="none" xmlns="http://www.w3.org/2000/svg">
<path d="M20.9328 8.73973L19.5187 8.34563L18.916 6.86196L19.6346 5.58693C19.9592 5.00738 19.8664 4.28872 19.4028 3.82508L18.1974 2.6196C17.7338 2.15595 16.9919 2.06322 16.4356 2.38778L15.1606 3.10643L13.677 2.50369L13.2829 1.08957C13.0975 0.463646 12.5179 0 11.8689 0H10.1766C9.52755 0 8.92483 0.440464 8.76256 1.08957L8.36848 2.50369L6.88487 3.10643L5.60989 2.38778C5.03036 2.06322 4.31174 2.15595 3.84811 2.6196L2.6195 3.82508C2.15587 4.28872 2.06314 5.03056 2.38768 5.58693L3.1063 6.86196L2.50359 8.34563L1.08952 8.73973C0.463627 8.92518 0 9.50474 0 10.1538V11.8462C0 12.5184 0.440446 13.098 1.08952 13.2603L2.50359 13.6544L3.1063 15.138L2.38768 16.4131C2.06314 16.9926 2.15587 17.7113 2.6195 18.1749L3.82493 19.3804C4.28855 19.844 5.03036 19.9368 5.58671 19.6122L6.86169 18.8936L8.34529 19.4963L8.73938 20.9104C8.92483 21.5364 9.50436 22 10.1534 22H11.8457C12.4948 22 13.0975 21.5595 13.2597 20.9104L13.6538 19.4963L15.1374 18.8936L16.4124 19.6122C16.9919 19.9368 17.7106 19.844 18.1742 19.3804L19.3796 18.1749C19.8433 17.7113 19.936 16.9926 19.6114 16.4131L18.8928 15.138L19.4955 13.6544L20.9096 13.2603C21.5355 13.0748 21.9991 12.4953 21.9991 11.8462V10.1538C22.0223 9.50474 21.5819 8.92518 20.9328 8.73973ZM20.7705 11.8693C20.7705 11.9621 20.701 12.078 20.6082 12.1012L18.6146 12.6344L17.5483 15.2308L18.5683 17.039C18.6146 17.1317 18.6146 17.2476 18.5219 17.3172L17.3165 18.5227C17.2469 18.5922 17.131 18.6154 17.0383 18.569L15.2302 17.549L12.6339 18.6154L12.0775 20.6091C12.0543 20.7018 11.9616 20.7713 11.8457 20.7713H10.1534C10.0607 20.7713 9.96799 20.7018 9.92163 20.6091L9.38846 18.6154L6.79214 17.549L4.984 18.569C4.89127 18.6154 4.77536 18.6154 4.70582 18.5227L3.50039 17.3172C3.43084 17.2476 3.40766 17.1317 3.45403 17.039L4.47401 15.2308L3.40766 12.6344L1.41406 12.078C1.32134 12.0548 1.25179 11.9621 1.25179 11.8462V10.1538C1.25179 10.0379 1.32134 9.96839 1.41406 9.92202L3.40766 9.36565L4.47401 6.76923L3.45403 4.98419C3.40766 4.89146 3.40766 4.77555 3.50039 4.70601L4.70582 3.50053C4.77536 3.43098 4.89127 3.4078 4.984 3.45416L6.79214 4.47418L9.38846 3.4078L9.94481 1.41412C9.96799 1.32139 10.0607 1.25184 10.1766 1.25184H11.8689C11.9616 1.25184 12.0543 1.32139 12.1007 1.41412L12.657 3.4078L15.2533 4.49737L17.0615 3.47734C17.1542 3.43098 17.2701 3.43098 17.3397 3.52371L18.5451 4.72919C18.6146 4.79874 18.6378 4.91465 18.5915 5.00738L17.5715 6.8156L18.6146 9.38883L20.6082 9.94521C20.701 9.96839 20.7705 10.0611 20.7705 10.177V11.8693Z" fill="#76788F"/>
<path d="M11.0115 6.83887C8.71656 6.83887 6.83887 8.71663 6.83887 11.0117C6.83887 13.3067 8.71656 15.1845 11.0115 15.1845C13.3065 15.1845 15.1842 13.3067 15.1842 11.0117C15.1842 8.71663 13.3065 6.83887 11.0115 6.83887ZM11.0115 13.9327C9.38882 13.9327 8.09066 12.6113 8.09066 11.0117C8.09066 9.38892 9.412 8.09071 11.0115 8.09071C12.611 8.09071 13.9324 9.38892 13.9324 11.0117C13.9324 12.6344 12.6342 13.9327 11.0115 13.9327Z" fill="#76788F"/>
</svg>
