<svg width="31" height="30" viewBox="0 0 31 30" fill="none" xmlns="http://www.w3.org/2000/svg">
<path d="M19.375 12.3029C13.3997 12.3029 8.71875 9.83161 8.71875 6.67786C8.71875 3.52411 13.3997 1.05286 19.375 1.05286C25.3503 1.05286 30.0312 3.52411 30.0312 6.67786C30.0312 9.83161 25.3503 12.3029 19.375 12.3029ZM19.375 2.92786C14.2368 2.92786 10.6562 4.90411 10.6562 6.67786C10.6562 8.45161 14.2368 10.4279 19.375 10.4279C24.5133 10.4279 28.0938 8.45161 28.0938 6.67786C28.0938 4.90411 24.5133 2.92786 19.375 2.92786Z" fill="#76788F"/>
<path d="M19.375 29.0625C18.9536 29.0625 18.5322 29.0494 18.1137 29.025C17.5693 28.9922 17.1721 28.5085 17.2331 27.9835C17.2912 27.4791 17.7524 27.1257 18.2765 27.1557C18.6417 27.1763 19.0088 27.1875 19.376 27.1875C24.5142 27.1875 28.0947 25.2113 28.0947 23.4375V6.67786H30.0322V23.4375C30.0322 26.5913 25.3503 29.0625 19.375 29.0625Z" fill="#76788F"/>
<path d="M19.375 23.5528C18.539 23.5528 17.7088 23.504 16.9086 23.4075L17.1488 21.5475C17.8686 21.6346 18.6184 21.6787 19.375 21.6787C24.5133 21.6787 28.0938 19.7025 28.0938 17.9287H30.0313C30.0313 21.0825 25.3503 23.5537 19.375 23.5537V23.5528Z" fill="#76788F"/>
<path d="M19.3749 17.9279C18.1533 17.9279 16.9598 17.8247 15.8254 17.6213L16.179 15.7772C17.1962 15.96 18.2715 16.0529 19.3749 16.0529C24.5132 16.0529 28.0937 14.0766 28.0937 12.3029H30.0312C30.0312 15.4566 25.3502 17.9279 19.3749 17.9279Z" fill="#76788F"/>
<path d="M10.6562 6.67786H8.71875V13.125H10.6562V6.67786Z" fill="#76788F"/>
<path d="M9.6875 29.0625C4.87959 29.0625 0.96875 25.2778 0.96875 20.625C0.96875 15.9722 4.87959 12.1875 9.6875 12.1875C14.4954 12.1875 18.4062 15.9722 18.4062 20.625C18.4062 25.2778 14.4954 29.0625 9.6875 29.0625ZM9.6875 14.0625C5.94909 14.0625 2.90625 17.0072 2.90625 20.625C2.90625 24.2428 5.94909 27.1875 9.6875 27.1875C13.4259 27.1875 16.4688 24.2428 16.4688 20.625C16.4688 17.0072 13.4259 14.0625 9.6875 14.0625Z" fill="#76788F"/>
</svg>
