<svg width="21" height="21" viewBox="0 0 21 21" fill="none" xmlns="http://www.w3.org/2000/svg">
<path d="M2.10658 21.0002C1.54908 21.0002 1.01431 20.7791 0.619478 20.3855C0.224466 19.9918 0.00181405 19.4578 0 18.9001V3.49792C0.00181275 2.57077 0.370953 1.68205 1.0265 1.0265C1.68205 0.370953 2.57077 0.00181405 3.49792 0H17.502C18.4298 0 19.3193 0.368645 19.9754 1.02452C20.6313 1.68057 20.9999 2.57014 20.9999 3.49792V14.6999C20.9999 15.6277 20.6313 16.5173 19.9754 17.1733C19.3193 17.8292 18.4298 18.1977 17.502 18.1977H7.21884C6.76465 18.1987 6.3227 18.346 5.95883 18.6177L3.33381 20.5865C2.97901 20.8508 2.54921 20.9957 2.10658 21V21.0002ZM3.49792 1.3983C2.94092 1.3983 2.40683 1.61945 2.01297 2.01331C1.61911 2.40716 1.39796 2.94126 1.39796 3.49826V18.9004C1.39911 19.0744 1.46487 19.2419 1.58253 19.3701C1.70003 19.4983 1.86103 19.5784 2.03423 19.5947C2.20759 19.611 2.38063 19.5624 2.52006 19.4583L5.14508 17.4895V17.4896C5.74591 17.046 6.472 16.8048 7.21884 16.8005H17.502C18.059 16.8005 18.5931 16.5793 18.9869 16.1854C19.3808 15.7916 19.6019 15.2575 19.6019 14.7005V3.4985C19.6019 2.9415 19.3808 2.40741 18.9869 2.01355C18.5931 1.61969 18.059 1.39854 17.502 1.39854L3.49792 1.3983Z" fill="#76788F"/>
<path d="M7.00214 8.40613H15.4021V9.80392H7.00214V8.40613Z" fill="#76788F"/>
</svg>
