<svg width="20" height="22" viewBox="0 0 20 22" fill="none" xmlns="http://www.w3.org/2000/svg">
<path d="M17.6923 3.14286H13.8462V2.35714C13.8455 1.7322 13.6021 1.13305 13.1695 0.691149C12.7369 0.249248 12.1503 0.000686305 11.5385 0H8.46154C7.84971 0.000686305 7.26313 0.249248 6.8305 0.691149C6.39787 1.13305 6.15452 1.7322 6.15385 2.35714V3.14286H2.30769C1.69586 3.14354 1.10928 3.3921 0.67665 3.83401C0.244019 4.27591 0.000671907 4.87506 0 5.5V7.85714C0 8.06553 0.0810437 8.26538 0.225302 8.41273C0.369561 8.56008 0.565218 8.64286 0.769231 8.64286H1.53846V19.6429C1.53913 20.2678 1.78248 20.8669 2.21511 21.3089C2.64774 21.7508 3.23432 21.9993 3.84615 22H16.1538C16.7657 21.9993 17.3523 21.7508 17.7849 21.3089C18.2175 20.8669 18.4609 20.2678 18.4615 19.6429V8.64286H19.2308C19.4348 8.64286 19.6304 8.56008 19.7747 8.41273C19.919 8.26538 20 8.06553 20 7.85714V5.5C19.9993 4.87506 19.756 4.27591 19.3234 3.83401C18.8907 3.3921 18.3041 3.14354 17.6923 3.14286ZM7.69231 2.35714C7.69251 2.14882 7.77362 1.94909 7.91783 1.80179C8.06205 1.65448 8.25759 1.57164 8.46154 1.57143H11.5385C11.7424 1.57164 11.938 1.65448 12.0822 1.80179C12.2264 1.94909 12.3075 2.14882 12.3077 2.35714V3.14286H7.69231V2.35714ZM16.9231 19.6429C16.9229 19.8512 16.8418 20.0509 16.6975 20.1982C16.5533 20.3455 16.3578 20.4284 16.1538 20.4286H3.84615C3.6422 20.4284 3.44667 20.3455 3.30245 20.1982C3.15824 20.0509 3.07713 19.8512 3.07692 19.6429V8.64286H16.9231V19.6429ZM18.4615 7.07143H1.53846V5.5C1.53867 5.29168 1.61977 5.09195 1.76399 4.94465C1.9082 4.79734 2.10374 4.71449 2.30769 4.71429H17.6923C17.8963 4.71449 18.0918 4.79734 18.236 4.94465C18.3802 5.09195 18.4613 5.29168 18.4615 5.5V7.07143Z" fill="white"/>
</svg>
