<svg width="18" height="14" viewBox="0 0 18 14" fill="none" xmlns="http://www.w3.org/2000/svg">
<path d="M17.9657 1.66805C17.3036 1.94579 16.5949 2.13687 15.8479 2.22353C16.6101 1.78593 17.1928 1.09373 17.4707 0.269127C16.7558 0.667436 15.9649 0.95594 15.1239 1.11903C14.4534 0.432218 13.4949 0 12.4313 0C10.3922 0 8.73956 1.58085 8.73956 3.52933C8.73956 3.80977 8.775 4.07889 8.83631 4.33403C5.769 4.19677 3.04988 2.78654 1.23131 0.656132C0.911813 1.17501 0.730125 1.77785 0.730125 2.43399C0.730125 3.66175 1.38319 4.73825 2.37037 5.37124C1.76681 5.35456 1.19869 5.19469 0.700875 4.93149V4.97401C0.700875 6.6862 1.97213 8.11365 3.65963 8.43876C3.35194 8.5168 3.02344 8.56201 2.68988 8.56201C2.45306 8.56201 2.22694 8.53995 2.00137 8.50012C2.47613 9.90173 3.83512 10.9223 5.45512 10.9529C4.19569 11.8976 2.59931 12.4606 0.879187 12.4606C0.586125 12.4606 0.293625 12.4471 0 12.4132C1.64081 13.4144 3.5775 14 5.66944 14C12.4571 14 16.1663 8.62015 16.1663 3.96101C16.1663 3.81246 16.1663 3.66121 16.1544 3.50942C16.8784 3.01584 17.505 2.39039 18 1.68151L17.9657 1.66805Z" fill="#76788F"/>
</svg>
