<svg width="18" height="11" viewBox="0 0 18 11" fill="none" xmlns="http://www.w3.org/2000/svg">
<path d="M17.5927 0.756231C17.3901 1.41004 17.1171 1.97914 16.775 2.49587L16.7893 2.47277C16.4532 3.04777 16.0519 3.7121 15.5853 4.46577C15.1853 5.06079 14.9735 5.36883 14.95 5.38988C14.8465 5.5231 14.7745 5.68636 14.7497 5.86579L14.749 5.87118C14.7692 6.03444 14.8427 6.17691 14.95 6.28318L15.25 6.62664C16.8553 8.32033 17.7582 9.48779 17.9587 10.129C17.985 10.1999 18 10.2815 18 10.367C18 10.5164 17.9535 10.6542 17.8747 10.7674L17.8762 10.7651C17.7442 10.9045 17.5597 10.9908 17.3556 10.9908C17.3331 10.9908 17.3099 10.99 17.2881 10.9877H17.2911H15.3176H15.3138C15.061 10.9877 14.8285 10.8968 14.6462 10.7459L14.6484 10.7474C14.3829 10.5233 14.1466 10.2807 13.9351 10.0174L13.9283 10.0081C13.5828 9.60716 13.2762 9.2696 13.0087 8.99545C12.1175 8.12576 11.4599 7.69091 11.0358 7.69091C11.0201 7.68937 11.0021 7.6886 10.9833 7.6886C10.8596 7.6886 10.744 7.72788 10.6488 7.79487L10.651 7.79333C10.573 7.89345 10.5258 8.02282 10.5258 8.16221C10.5258 8.18993 10.5273 8.21612 10.531 8.24307V8.23999C10.5108 8.4818 10.4987 8.76288 10.4987 9.04704C10.4987 9.13869 10.5002 9.22956 10.5025 9.32043V9.30734V10.1999C10.51 10.2361 10.5145 10.2777 10.5145 10.32C10.5145 10.5064 10.432 10.6727 10.303 10.7828L10.3022 10.7836C10.0119 10.9199 9.67286 11 9.31505 11C9.23854 11 9.16353 10.9961 9.08926 10.9892L9.09902 10.99C7.91832 10.9669 6.82314 10.6119 5.89223 10.0135L5.91849 10.0289C4.78505 9.32197 3.84589 8.40171 3.13027 7.31434L3.11002 7.28199C2.43041 6.35634 1.79655 5.31056 1.25646 4.20778L1.20395 4.08919C0.888148 3.47158 0.561093 2.71227 0.279047 1.93139L0.234039 1.78892C0.11927 1.43776 0.036006 1.02961 0.00150025 0.606833L0 0.587581C0 0.198427 0.223037 0.00385055 0.669111 0.00385055H2.64194C2.65994 0.00231037 2.68095 0.00154007 2.7027 0.00154007C2.88873 0.00154007 3.06051 0.066998 3.19628 0.177121L3.19478 0.175581C3.34481 0.344231 3.45583 0.551386 3.51059 0.782414L3.51284 0.791655C3.8759 1.84437 4.26071 2.72844 4.70328 3.57554L4.65303 3.47004C5.01459 4.21703 5.4144 4.86005 5.87048 5.45379L5.85323 5.42992C6.25329 5.93407 6.56534 6.18615 6.78938 6.18615C6.79613 6.18692 6.80438 6.18692 6.81339 6.18692C6.9244 6.18692 7.02117 6.12531 7.07368 6.0329L7.07443 6.03136C7.12994 5.88505 7.16219 5.71486 7.16219 5.53773C7.16219 5.5 7.16069 5.46227 7.15769 5.4253V5.42992V2.44273C7.14194 2.0908 7.05793 1.76197 6.91765 1.46703L6.92365 1.48166C6.83064 1.27835 6.71887 1.10277 6.5861 0.946444L6.58835 0.949524C6.46533 0.823229 6.38131 0.657659 6.35506 0.472837L6.35431 0.468216C6.35431 0.3373 6.41282 0.219476 6.50433 0.142467L6.50508 0.141697C6.59585 0.0562168 6.71737 0.00462059 6.85014 0.00462059H6.85614H9.96616C9.98266 0.00231031 10.0014 0.00154007 10.0209 0.00154007C10.1672 0.00154007 10.2985 0.0693084 10.3855 0.175581L10.3862 0.176351C10.4635 0.321129 10.5093 0.494399 10.5093 0.677681C10.5093 0.706945 10.5078 0.735438 10.5055 0.763932V0.760081V4.74377C10.504 4.76225 10.5033 4.78381 10.5033 4.80538C10.5033 4.94707 10.5415 5.0803 10.6075 5.1935L10.606 5.19042C10.6608 5.27359 10.7523 5.3275 10.8558 5.3275C10.9878 5.31826 11.1086 5.27359 11.2099 5.20274L11.2076 5.20428C11.4117 5.06028 11.5872 4.89625 11.7395 4.71065L11.7425 4.7068C12.1978 4.17852 12.6179 3.59479 12.9839 2.9741L13.0132 2.92019C13.2712 2.48124 13.5503 1.94063 13.803 1.3854L13.8496 1.27219L14.1841 0.58527C14.3004 0.241809 14.6124 0 14.9792 0C14.9935 0 15.0077 -5.58794e-08 15.022 0.000770037H15.0198H16.9933C17.5264 0.000770037 17.7257 0.25259 17.5927 0.756231Z" fill="#76788F"/>
</svg>
