<svg width="19" height="12" viewBox="0 0 19 12" fill="none" xmlns="http://www.w3.org/2000/svg">
<path d="M0.84498 9.32583C0.621755 9.56262 0.499998 9.86399 0.499998 10.2192C0.499998 10.9295 1.02762 11.5 1.69729 11.5C2.03213 11.5 2.33653 11.3493 2.5699 11.1018L9.51015 3.56751L16.4301 11.1018C16.6635 11.3493 16.978 11.5 17.3027 11.5C17.9724 11.5 18.5 10.9295 18.5 10.2192C18.5 9.86399 18.3782 9.56262 18.155 9.32583L10.4436 0.952054C10.1798 0.650685 9.85513 0.510763 9.5 0.5C9.14487 0.5 8.84047 0.650684 8.56651 0.952054L0.84498 9.32583Z" fill="#C69A52"/>
</svg>
