<svg width="19" height="12" viewBox="0 0 19 12" fill="none" xmlns="http://www.w3.org/2000/svg">
<path d="M18.155 2.67417C18.3782 2.43738 18.5 2.13601 18.5 1.78082C18.5 1.07045 17.9724 0.500001 17.3027 0.500001C16.9679 0.500001 16.6635 0.650686 16.4301 0.898239L9.48985 8.43249L2.5699 0.89824C2.33653 0.650686 2.02198 0.500002 1.69729 0.500002C1.02762 0.500002 0.5 1.07045 0.5 1.78082C0.5 2.13601 0.621758 2.43738 0.844983 2.67417L8.55637 11.0479C8.82018 11.3493 9.14487 11.4892 9.5 11.5C9.85513 11.5 10.1595 11.3493 10.4335 11.0479L18.155 2.67417Z" fill="#C69A52"/>
</svg>
