<svg width="204" height="172" viewBox="0 0 204 172" fill="none" xmlns="http://www.w3.org/2000/svg">
<path d="M20 104H50V139H20V104Z" fill="#D52A1D"/>
<path d="M20 93H24C30.0751 93 35 97.9249 35 104H20V93Z" fill="#D52A1D"/>
<path d="M50 93H46C39.9249 93 35 97.9249 35 104H50V93Z" fill="#D52A1D"/>
<path d="M90 104H120V139H90V104Z" fill="#D52A1D"/>
<path d="M90 93H94C100.075 93 105 97.9249 105 104H90V93Z" fill="#D52A1D"/>
<path d="M120 93H116C109.925 93 105 97.9249 105 104H120V93Z" fill="#D52A1D"/>
<path d="M133.563 131.31H202.344V170H133.563V131.31Z" fill="#D52A1D"/>
<path d="M139.426 90.2755H196.483V120.758H139.426V90.2755Z" fill="#D52A1D"/>
<path d="M154.276 26.5751H182.023V45.3337H154.276V26.5751Z" fill="#D52A1D"/>
<path d="M132 120.759H203.908V125.058H132V120.759Z" fill="#D52A1D"/>
<path d="M132 125.058H203.908L202.344 131.31H133.563L132 125.058Z" fill="#D52A1D"/>
<path d="M154.277 45.3333H182.219L196.483 90.2755H139.426L154.277 45.3333Z" fill="#D52A1D"/>
<path d="M167.954 0L182.023 26.5751H154.276L167.954 0Z" fill="#D52A1D"/>
<rect y="104" width="200" height="68" fill="#D52A1D"/>
</svg>
