<svg width="209" height="172" viewBox="0 0 209 172" fill="none" xmlns="http://www.w3.org/2000/svg">
<path d="M83 104H113V139H83V104Z" fill="#D52A1D"/>
<path d="M83 93H87C93.0751 93 98 97.9249 98 104H83V93Z" fill="#D52A1D"/>
<path d="M113 93H109C102.925 93 98 97.9249 98 104H113V93Z" fill="#D52A1D"/>
<path d="M153 104H183V139H153V104Z" fill="#D52A1D"/>
<path d="M153 93H157C163.075 93 168 97.9249 168 104H153V93Z" fill="#D52A1D"/>
<path d="M183 93H179C172.925 93 168 97.9249 168 104H183V93Z" fill="#D52A1D"/>
<path d="M1.56259 131.31H70.3442V170H1.56259V131.31Z" fill="#D52A1D"/>
<path d="M7.42586 90.2755H64.4833V120.758H7.42586V90.2755Z" fill="#D52A1D"/>
<path d="M22.276 26.5751H50.0231V45.3337H22.276V26.5751Z" fill="#D52A1D"/>
<path d="M0 120.759H71.908V125.058H0V120.759Z" fill="#D52A1D"/>
<path d="M0 125.058H71.908L70.3442 131.31H1.56259L0 125.058Z" fill="#D52A1D"/>
<path d="M22.2769 45.3333H50.2191L64.4833 90.2755H7.42586L22.2769 45.3333Z" fill="#D52A1D"/>
<path d="M35.9542 0L50.0231 26.5751H22.276L35.9542 0Z" fill="#D52A1D"/>
<rect x="9" y="104" width="200" height="68" fill="#D52A1D"/>
</svg>
