<svg width="1440" height="172" viewBox="0 0 1440 172" fill="none" xmlns="http://www.w3.org/2000/svg">
<path d="M20 104H50V139H20V104Z" fill="#D52A1D"/>
<path d="M20 93H24C30.0751 93 35 97.9249 35 104H20V93Z" fill="#D52A1D"/>
<path d="M50 93H46C39.9249 93 35 97.9249 35 104H50V93Z" fill="#D52A1D"/>
<path d="M90 104H120V139H90V104Z" fill="#D52A1D"/>
<path d="M90 93H94C100.075 93 105 97.9249 105 104H90V93Z" fill="#D52A1D"/>
<path d="M120 93H116C109.925 93 105 97.9249 105 104H120V93Z" fill="#D52A1D"/>
<path d="M250 104H280V139H250V104Z" fill="#D52A1D"/>
<path d="M250 93H254C260.075 93 265 97.9249 265 104H250V93Z" fill="#D52A1D"/>
<path d="M280 93H276C269.925 93 265 97.9249 265 104H280V93Z" fill="#D52A1D"/>
<path d="M320 104H350V139H320V104Z" fill="#D52A1D"/>
<path d="M320 93H324C330.075 93 335 97.9249 335 104H320V93Z" fill="#D52A1D"/>
<path d="M350 93H346C339.925 93 335 97.9249 335 104H350V93Z" fill="#D52A1D"/>
<path d="M390 104H420V139H390V104Z" fill="#D52A1D"/>
<path d="M390 93H394C400.075 93 405 97.9249 405 104H390V93Z" fill="#D52A1D"/>
<path d="M420 93H416C409.925 93 405 97.9249 405 104H420V93Z" fill="#D52A1D"/>
<path d="M460 104H490V139H460V104Z" fill="#D52A1D"/>
<path d="M460 93H464C470.075 93 475 97.9249 475 104H460V93Z" fill="#D52A1D"/>
<path d="M490 93H486C479.925 93 475 97.9249 475 104H490V93Z" fill="#D52A1D"/>
<path d="M530 104H560V139H530V104Z" fill="#D52A1D"/>
<path d="M530 93H534C540.075 93 545 97.9249 545 104H530V93Z" fill="#D52A1D"/>
<path d="M560 93H556C549.925 93 545 97.9249 545 104H560V93Z" fill="#D52A1D"/>
<path d="M600 104H630V139H600V104Z" fill="#D52A1D"/>
<path d="M600 93H604C610.075 93 615 97.9249 615 104H600V93Z" fill="#D52A1D"/>
<path d="M630 93H626C619.925 93 615 97.9249 615 104H630V93Z" fill="#D52A1D"/>
<path d="M670 104H700V139H670V104Z" fill="#D52A1D"/>
<path d="M670 93H674C680.075 93 685 97.9249 685 104H670V93Z" fill="#D52A1D"/>
<path d="M700 93H696C689.925 93 685 97.9249 685 104H700V93Z" fill="#D52A1D"/>
<path d="M740 104H770V139H740V104Z" fill="#D52A1D"/>
<path d="M740 93H744C750.075 93 755 97.9249 755 104H740V93Z" fill="#D52A1D"/>
<path d="M770 93H766C759.925 93 755 97.9249 755 104H770V93Z" fill="#D52A1D"/>
<path d="M810 104H840V139H810V104Z" fill="#D52A1D"/>
<path d="M810 93H814C820.075 93 825 97.9249 825 104H810V93Z" fill="#D52A1D"/>
<path d="M840 93H836C829.925 93 825 97.9249 825 104H840V93Z" fill="#D52A1D"/>
<path d="M880 104H910V139H880V104Z" fill="#D52A1D"/>
<path d="M880 93H884C890.075 93 895 97.9249 895 104H880V93Z" fill="#D52A1D"/>
<path d="M910 93H906C899.925 93 895 97.9249 895 104H910V93Z" fill="#D52A1D"/>
<path d="M950 104H980V139H950V104Z" fill="#D52A1D"/>
<path d="M950 93H954C960.075 93 965 97.9249 965 104H950V93Z" fill="#D52A1D"/>
<path d="M980 93H976C969.925 93 965 97.9249 965 104H980V93Z" fill="#D52A1D"/>
<path d="M1020 104H1050V139H1020V104Z" fill="#D52A1D"/>
<path d="M1020 93H1024C1030.08 93 1035 97.9249 1035 104H1020V93Z" fill="#D52A1D"/>
<path d="M1050 93H1046C1039.92 93 1035 97.9249 1035 104H1050V93Z" fill="#D52A1D"/>
<path d="M1090 104H1120V139H1090V104Z" fill="#D52A1D"/>
<path d="M1090 93H1094C1100.08 93 1105 97.9249 1105 104H1090V93Z" fill="#D52A1D"/>
<path d="M1120 93H1116C1109.92 93 1105 97.9249 1105 104H1120V93Z" fill="#D52A1D"/>
<path d="M1160 104H1190V139H1160V104Z" fill="#D52A1D"/>
<path d="M1160 93H1164C1170.08 93 1175 97.9249 1175 104H1160V93Z" fill="#D52A1D"/>
<path d="M1190 93H1186C1179.92 93 1175 97.9249 1175 104H1190V93Z" fill="#D52A1D"/>
<path d="M1311 104H1341V139H1311V104Z" fill="#D52A1D"/>
<path d="M1311 93H1315C1321.08 93 1326 97.9249 1326 104H1311V93Z" fill="#D52A1D"/>
<path d="M1341 93H1337C1330.92 93 1326 97.9249 1326 104H1341V93Z" fill="#D52A1D"/>
<path d="M1381 104H1411V139H1381V104Z" fill="#D52A1D"/>
<path d="M1381 93H1385C1391.08 93 1396 97.9249 1396 104H1381V93Z" fill="#D52A1D"/>
<path d="M1411 93H1407C1400.92 93 1396 97.9249 1396 104H1411V93Z" fill="#D52A1D"/>
<rect y="104" width="1440" height="68" fill="#D52A1D"/>
<path d="M133.563 131.31H202.344V170H133.563V131.31Z" fill="#D52A1D"/>
<path d="M139.426 90.2755H196.483V120.758H139.426V90.2755Z" fill="#D52A1D"/>
<path d="M154.276 26.5751H182.023V45.3337H154.276V26.5751Z" fill="#D52A1D"/>
<path d="M132 120.759H203.908V125.058H132V120.759Z" fill="#D52A1D"/>
<path d="M132 125.058H203.908L202.344 131.31H133.563L132 125.058Z" fill="#D52A1D"/>
<path d="M154.277 45.3333H182.219L196.483 90.2755H139.426L154.277 45.3333Z" fill="#D52A1D"/>
<path d="M167.954 0L182.023 26.5751H154.276L167.954 0Z" fill="#D52A1D"/>
<path d="M1229.56 131.31H1298.34V170H1229.56V131.31Z" fill="#D52A1D"/>
<path d="M1235.43 90.2755H1292.48V120.758H1235.43V90.2755Z" fill="#D52A1D"/>
<path d="M1250.28 26.5751H1278.02V45.3337H1250.28V26.5751Z" fill="#D52A1D"/>
<path d="M1228 120.759H1299.91V125.058H1228V120.759Z" fill="#D52A1D"/>
<path d="M1228 125.058H1299.91L1298.34 131.31H1229.56L1228 125.058Z" fill="#D52A1D"/>
<path d="M1250.28 45.3333H1278.22L1292.48 90.2755H1235.43L1250.28 45.3333Z" fill="#D52A1D"/>
<path d="M1263.95 0L1278.02 26.5751H1250.28L1263.95 0Z" fill="#D52A1D"/>
</svg>
