<svg width="7140" height="79" viewBox="0 0 7140 79" fill="none" xmlns="http://www.w3.org/2000/svg">
<path d="M0 11H30V46H0V11Z" fill="#D52A1D"/>
<path d="M0 0H4C10.0751 0 15 4.92487 15 11H0V0Z" fill="#D52A1D"/>
<path d="M30 0H26C19.9249 0 15 4.92487 15 11H30V0Z" fill="#D52A1D"/>
<path d="M70 11H100V46H70V11Z" fill="#D52A1D"/>
<path d="M70 0H74C80.0751 0 85 4.92487 85 11H70V0Z" fill="#D52A1D"/>
<path d="M100 0H96C89.9249 0 85 4.92487 85 11H100V0Z" fill="#D52A1D"/>
<path d="M140 11H170V46H140V11Z" fill="#D52A1D"/>
<path d="M140 0H144C150.075 0 155 4.92487 155 11H140V0Z" fill="#D52A1D"/>
<path d="M170 0H166C159.925 0 155 4.92487 155 11H170V0Z" fill="#D52A1D"/>
<path d="M210 11H240V46H210V11Z" fill="#D52A1D"/>
<path d="M210 0H214C220.075 0 225 4.92487 225 11H210V0Z" fill="#D52A1D"/>
<path d="M240 0H236C229.925 0 225 4.92487 225 11H240V0Z" fill="#D52A1D"/>
<path d="M280 11H310V46H280V11Z" fill="#D52A1D"/>
<path d="M280 0H284C290.075 0 295 4.92487 295 11H280V0Z" fill="#D52A1D"/>
<path d="M310 0H306C299.925 0 295 4.92487 295 11H310V0Z" fill="#D52A1D"/>
<path d="M350 11H380V46H350V11Z" fill="#D52A1D"/>
<path d="M350 0H354C360.075 0 365 4.92487 365 11H350V0Z" fill="#D52A1D"/>
<path d="M380 0H376C369.925 0 365 4.92487 365 11H380V0Z" fill="#D52A1D"/>
<path d="M420 11H450V46H420V11Z" fill="#D52A1D"/>
<path d="M420 0H424C430.075 0 435 4.92487 435 11H420V0Z" fill="#D52A1D"/>
<path d="M450 0H446C439.925 0 435 4.92487 435 11H450V0Z" fill="#D52A1D"/>
<path d="M490 11H520V46H490V11Z" fill="#D52A1D"/>
<path d="M490 0H494C500.075 0 505 4.92487 505 11H490V0Z" fill="#D52A1D"/>
<path d="M520 0H516C509.925 0 505 4.92487 505 11H520V0Z" fill="#D52A1D"/>
<path d="M560 11H590V46H560V11Z" fill="#D52A1D"/>
<path d="M560 0H564C570.075 0 575 4.92487 575 11H560V0Z" fill="#D52A1D"/>
<path d="M590 0H586C579.925 0 575 4.92487 575 11H590V0Z" fill="#D52A1D"/>
<path d="M630 11H660V46H630V11Z" fill="#D52A1D"/>
<path d="M630 0H634C640.075 0 645 4.92487 645 11H630V0Z" fill="#D52A1D"/>
<path d="M660 0H656C649.925 0 645 4.92487 645 11H660V0Z" fill="#D52A1D"/>
<path d="M700 11H730V46H700V11Z" fill="#D52A1D"/>
<path d="M700 0H704C710.075 0 715 4.92487 715 11H700V0Z" fill="#D52A1D"/>
<path d="M730 0H726C719.925 0 715 4.92487 715 11H730V0Z" fill="#D52A1D"/>
<path d="M770 11H800V46H770V11Z" fill="#D52A1D"/>
<path d="M770 0H774C780.075 0 785 4.92487 785 11H770V0Z" fill="#D52A1D"/>
<path d="M800 0H796C789.925 0 785 4.92487 785 11H800V0Z" fill="#D52A1D"/>
<path d="M840 11H870V46H840V11Z" fill="#D52A1D"/>
<path d="M840 0H844C850.075 0 855 4.92487 855 11H840V0Z" fill="#D52A1D"/>
<path d="M870 0H866C859.925 0 855 4.92487 855 11H870V0Z" fill="#D52A1D"/>
<path d="M910 11H940V46H910V11Z" fill="#D52A1D"/>
<path d="M910 0H914C920.075 0 925 4.92487 925 11H910V0Z" fill="#D52A1D"/>
<path d="M940 0H936C929.925 0 925 4.92487 925 11H940V0Z" fill="#D52A1D"/>
<path d="M980 11H1010V46H980V11Z" fill="#D52A1D"/>
<path d="M980 0H984C990.075 0 995 4.92487 995 11H980V0Z" fill="#D52A1D"/>
<path d="M1010 0H1006C999.925 0 995 4.92487 995 11H1010V0Z" fill="#D52A1D"/>
<path d="M1050 11H1080V46H1050V11Z" fill="#D52A1D"/>
<path d="M1050 0H1054C1060.08 0 1065 4.92487 1065 11H1050V0Z" fill="#D52A1D"/>
<path d="M1080 0H1076C1069.92 0 1065 4.92487 1065 11H1080V0Z" fill="#D52A1D"/>
<path d="M1120 11H1150V46H1120V11Z" fill="#D52A1D"/>
<path d="M1120 0H1124C1130.08 0 1135 4.92487 1135 11H1120V0Z" fill="#D52A1D"/>
<path d="M1150 0H1146C1139.92 0 1135 4.92487 1135 11H1150V0Z" fill="#D52A1D"/>
<rect y="11" width="1190" height="68" fill="#D52A1D"/>
<path d="M1190 11H1220V46H1190V11Z" fill="#D52A1D"/>
<path d="M1190 0H1194C1200.08 0 1205 4.92487 1205 11H1190V0Z" fill="#D52A1D"/>
<path d="M1220 0H1216C1209.92 0 1205 4.92487 1205 11H1220V0Z" fill="#D52A1D"/>
<path d="M1260 11H1290V46H1260V11Z" fill="#D52A1D"/>
<path d="M1260 0H1264C1270.08 0 1275 4.92487 1275 11H1260V0Z" fill="#D52A1D"/>
<path d="M1290 0H1286C1279.92 0 1275 4.92487 1275 11H1290V0Z" fill="#D52A1D"/>
<path d="M1330 11H1360V46H1330V11Z" fill="#D52A1D"/>
<path d="M1330 0H1334C1340.08 0 1345 4.92487 1345 11H1330V0Z" fill="#D52A1D"/>
<path d="M1360 0H1356C1349.92 0 1345 4.92487 1345 11H1360V0Z" fill="#D52A1D"/>
<path d="M1400 11H1430V46H1400V11Z" fill="#D52A1D"/>
<path d="M1400 0H1404C1410.08 0 1415 4.92487 1415 11H1400V0Z" fill="#D52A1D"/>
<path d="M1430 0H1426C1419.92 0 1415 4.92487 1415 11H1430V0Z" fill="#D52A1D"/>
<path d="M1470 11H1500V46H1470V11Z" fill="#D52A1D"/>
<path d="M1470 0H1474C1480.08 0 1485 4.92487 1485 11H1470V0Z" fill="#D52A1D"/>
<path d="M1500 0H1496C1489.92 0 1485 4.92487 1485 11H1500V0Z" fill="#D52A1D"/>
<path d="M1540 11H1570V46H1540V11Z" fill="#D52A1D"/>
<path d="M1540 0H1544C1550.08 0 1555 4.92487 1555 11H1540V0Z" fill="#D52A1D"/>
<path d="M1570 0H1566C1559.92 0 1555 4.92487 1555 11H1570V0Z" fill="#D52A1D"/>
<path d="M1610 11H1640V46H1610V11Z" fill="#D52A1D"/>
<path d="M1610 0H1614C1620.08 0 1625 4.92487 1625 11H1610V0Z" fill="#D52A1D"/>
<path d="M1640 0H1636C1629.92 0 1625 4.92487 1625 11H1640V0Z" fill="#D52A1D"/>
<path d="M1680 11H1710V46H1680V11Z" fill="#D52A1D"/>
<path d="M1680 0H1684C1690.08 0 1695 4.92487 1695 11H1680V0Z" fill="#D52A1D"/>
<path d="M1710 0H1706C1699.92 0 1695 4.92487 1695 11H1710V0Z" fill="#D52A1D"/>
<path d="M1750 11H1780V46H1750V11Z" fill="#D52A1D"/>
<path d="M1750 0H1754C1760.08 0 1765 4.92487 1765 11H1750V0Z" fill="#D52A1D"/>
<path d="M1780 0H1776C1769.92 0 1765 4.92487 1765 11H1780V0Z" fill="#D52A1D"/>
<path d="M1820 11H1850V46H1820V11Z" fill="#D52A1D"/>
<path d="M1820 0H1824C1830.08 0 1835 4.92487 1835 11H1820V0Z" fill="#D52A1D"/>
<path d="M1850 0H1846C1839.92 0 1835 4.92487 1835 11H1850V0Z" fill="#D52A1D"/>
<path d="M1890 11H1920V46H1890V11Z" fill="#D52A1D"/>
<path d="M1890 0H1894C1900.08 0 1905 4.92487 1905 11H1890V0Z" fill="#D52A1D"/>
<path d="M1920 0H1916C1909.92 0 1905 4.92487 1905 11H1920V0Z" fill="#D52A1D"/>
<path d="M1960 11H1990V46H1960V11Z" fill="#D52A1D"/>
<path d="M1960 0H1964C1970.08 0 1975 4.92487 1975 11H1960V0Z" fill="#D52A1D"/>
<path d="M1990 0H1986C1979.92 0 1975 4.92487 1975 11H1990V0Z" fill="#D52A1D"/>
<path d="M2030 11H2060V46H2030V11Z" fill="#D52A1D"/>
<path d="M2030 0H2034C2040.08 0 2045 4.92487 2045 11H2030V0Z" fill="#D52A1D"/>
<path d="M2060 0H2056C2049.92 0 2045 4.92487 2045 11H2060V0Z" fill="#D52A1D"/>
<path d="M2100 11H2130V46H2100V11Z" fill="#D52A1D"/>
<path d="M2100 0H2104C2110.08 0 2115 4.92487 2115 11H2100V0Z" fill="#D52A1D"/>
<path d="M2130 0H2126C2119.92 0 2115 4.92487 2115 11H2130V0Z" fill="#D52A1D"/>
<path d="M2170 11H2200V46H2170V11Z" fill="#D52A1D"/>
<path d="M2170 0H2174C2180.08 0 2185 4.92487 2185 11H2170V0Z" fill="#D52A1D"/>
<path d="M2200 0H2196C2189.92 0 2185 4.92487 2185 11H2200V0Z" fill="#D52A1D"/>
<path d="M2240 11H2270V46H2240V11Z" fill="#D52A1D"/>
<path d="M2240 0H2244C2250.08 0 2255 4.92487 2255 11H2240V0Z" fill="#D52A1D"/>
<path d="M2270 0H2266C2259.92 0 2255 4.92487 2255 11H2270V0Z" fill="#D52A1D"/>
<path d="M2310 11H2340V46H2310V11Z" fill="#D52A1D"/>
<path d="M2310 0H2314C2320.08 0 2325 4.92487 2325 11H2310V0Z" fill="#D52A1D"/>
<path d="M2340 0H2336C2329.92 0 2325 4.92487 2325 11H2340V0Z" fill="#D52A1D"/>
<rect x="1190" y="11" width="1190" height="68" fill="#D52A1D"/>
<path d="M2380 11H2410V46H2380V11Z" fill="#D52A1D"/>
<path d="M2380 0H2384C2390.08 0 2395 4.92487 2395 11H2380V0Z" fill="#D52A1D"/>
<path d="M2410 0H2406C2399.92 0 2395 4.92487 2395 11H2410V0Z" fill="#D52A1D"/>
<path d="M2450 11H2480V46H2450V11Z" fill="#D52A1D"/>
<path d="M2450 0H2454C2460.08 0 2465 4.92487 2465 11H2450V0Z" fill="#D52A1D"/>
<path d="M2480 0H2476C2469.92 0 2465 4.92487 2465 11H2480V0Z" fill="#D52A1D"/>
<path d="M2520 11H2550V46H2520V11Z" fill="#D52A1D"/>
<path d="M2520 0H2524C2530.08 0 2535 4.92487 2535 11H2520V0Z" fill="#D52A1D"/>
<path d="M2550 0H2546C2539.92 0 2535 4.92487 2535 11H2550V0Z" fill="#D52A1D"/>
<path d="M2590 11H2620V46H2590V11Z" fill="#D52A1D"/>
<path d="M2590 0H2594C2600.08 0 2605 4.92487 2605 11H2590V0Z" fill="#D52A1D"/>
<path d="M2620 0H2616C2609.92 0 2605 4.92487 2605 11H2620V0Z" fill="#D52A1D"/>
<path d="M2660 11H2690V46H2660V11Z" fill="#D52A1D"/>
<path d="M2660 0H2664C2670.08 0 2675 4.92487 2675 11H2660V0Z" fill="#D52A1D"/>
<path d="M2690 0H2686C2679.92 0 2675 4.92487 2675 11H2690V0Z" fill="#D52A1D"/>
<path d="M2730 11H2760V46H2730V11Z" fill="#D52A1D"/>
<path d="M2730 0H2734C2740.08 0 2745 4.92487 2745 11H2730V0Z" fill="#D52A1D"/>
<path d="M2760 0H2756C2749.92 0 2745 4.92487 2745 11H2760V0Z" fill="#D52A1D"/>
<path d="M2800 11H2830V46H2800V11Z" fill="#D52A1D"/>
<path d="M2800 0H2804C2810.08 0 2815 4.92487 2815 11H2800V0Z" fill="#D52A1D"/>
<path d="M2830 0H2826C2819.92 0 2815 4.92487 2815 11H2830V0Z" fill="#D52A1D"/>
<path d="M2870 11H2900V46H2870V11Z" fill="#D52A1D"/>
<path d="M2870 0H2874C2880.08 0 2885 4.92487 2885 11H2870V0Z" fill="#D52A1D"/>
<path d="M2900 0H2896C2889.92 0 2885 4.92487 2885 11H2900V0Z" fill="#D52A1D"/>
<path d="M2940 11H2970V46H2940V11Z" fill="#D52A1D"/>
<path d="M2940 0H2944C2950.08 0 2955 4.92487 2955 11H2940V0Z" fill="#D52A1D"/>
<path d="M2970 0H2966C2959.92 0 2955 4.92487 2955 11H2970V0Z" fill="#D52A1D"/>
<path d="M3010 11H3040V46H3010V11Z" fill="#D52A1D"/>
<path d="M3010 0H3014C3020.08 0 3025 4.92487 3025 11H3010V0Z" fill="#D52A1D"/>
<path d="M3040 0H3036C3029.92 0 3025 4.92487 3025 11H3040V0Z" fill="#D52A1D"/>
<path d="M3080 11H3110V46H3080V11Z" fill="#D52A1D"/>
<path d="M3080 0H3084C3090.08 0 3095 4.92487 3095 11H3080V0Z" fill="#D52A1D"/>
<path d="M3110 0H3106C3099.92 0 3095 4.92487 3095 11H3110V0Z" fill="#D52A1D"/>
<path d="M3150 11H3180V46H3150V11Z" fill="#D52A1D"/>
<path d="M3150 0H3154C3160.08 0 3165 4.92487 3165 11H3150V0Z" fill="#D52A1D"/>
<path d="M3180 0H3176C3169.92 0 3165 4.92487 3165 11H3180V0Z" fill="#D52A1D"/>
<path d="M3220 11H3250V46H3220V11Z" fill="#D52A1D"/>
<path d="M3220 0H3224C3230.08 0 3235 4.92487 3235 11H3220V0Z" fill="#D52A1D"/>
<path d="M3250 0H3246C3239.92 0 3235 4.92487 3235 11H3250V0Z" fill="#D52A1D"/>
<path d="M3290 11H3320V46H3290V11Z" fill="#D52A1D"/>
<path d="M3290 0H3294C3300.08 0 3305 4.92487 3305 11H3290V0Z" fill="#D52A1D"/>
<path d="M3320 0H3316C3309.92 0 3305 4.92487 3305 11H3320V0Z" fill="#D52A1D"/>
<path d="M3360 11H3390V46H3360V11Z" fill="#D52A1D"/>
<path d="M3360 0H3364C3370.08 0 3375 4.92487 3375 11H3360V0Z" fill="#D52A1D"/>
<path d="M3390 0H3386C3379.92 0 3375 4.92487 3375 11H3390V0Z" fill="#D52A1D"/>
<path d="M3430 11H3460V46H3430V11Z" fill="#D52A1D"/>
<path d="M3430 0H3434C3440.08 0 3445 4.92487 3445 11H3430V0Z" fill="#D52A1D"/>
<path d="M3460 0H3456C3449.92 0 3445 4.92487 3445 11H3460V0Z" fill="#D52A1D"/>
<path d="M3500 11H3530V46H3500V11Z" fill="#D52A1D"/>
<path d="M3500 0H3504C3510.08 0 3515 4.92487 3515 11H3500V0Z" fill="#D52A1D"/>
<path d="M3530 0H3526C3519.92 0 3515 4.92487 3515 11H3530V0Z" fill="#D52A1D"/>
<rect x="2380" y="11" width="1190" height="68" fill="#D52A1D"/>
<path d="M3570 11H3600V46H3570V11Z" fill="#D52A1D"/>
<path d="M3570 0H3574C3580.08 0 3585 4.92487 3585 11H3570V0Z" fill="#D52A1D"/>
<path d="M3600 0H3596C3589.92 0 3585 4.92487 3585 11H3600V0Z" fill="#D52A1D"/>
<path d="M3640 11H3670V46H3640V11Z" fill="#D52A1D"/>
<path d="M3640 0H3644C3650.08 0 3655 4.92487 3655 11H3640V0Z" fill="#D52A1D"/>
<path d="M3670 0H3666C3659.92 0 3655 4.92487 3655 11H3670V0Z" fill="#D52A1D"/>
<path d="M3710 11H3740V46H3710V11Z" fill="#D52A1D"/>
<path d="M3710 0H3714C3720.08 0 3725 4.92487 3725 11H3710V0Z" fill="#D52A1D"/>
<path d="M3740 0H3736C3729.92 0 3725 4.92487 3725 11H3740V0Z" fill="#D52A1D"/>
<path d="M3780 11H3810V46H3780V11Z" fill="#D52A1D"/>
<path d="M3780 0H3784C3790.08 0 3795 4.92487 3795 11H3780V0Z" fill="#D52A1D"/>
<path d="M3810 0H3806C3799.92 0 3795 4.92487 3795 11H3810V0Z" fill="#D52A1D"/>
<path d="M3850 11H3880V46H3850V11Z" fill="#D52A1D"/>
<path d="M3850 0H3854C3860.08 0 3865 4.92487 3865 11H3850V0Z" fill="#D52A1D"/>
<path d="M3880 0H3876C3869.92 0 3865 4.92487 3865 11H3880V0Z" fill="#D52A1D"/>
<path d="M3920 11H3950V46H3920V11Z" fill="#D52A1D"/>
<path d="M3920 0H3924C3930.08 0 3935 4.92487 3935 11H3920V0Z" fill="#D52A1D"/>
<path d="M3950 0H3946C3939.92 0 3935 4.92487 3935 11H3950V0Z" fill="#D52A1D"/>
<path d="M3990 11H4020V46H3990V11Z" fill="#D52A1D"/>
<path d="M3990 0H3994C4000.08 0 4005 4.92487 4005 11H3990V0Z" fill="#D52A1D"/>
<path d="M4020 0H4016C4009.92 0 4005 4.92487 4005 11H4020V0Z" fill="#D52A1D"/>
<path d="M4060 11H4090V46H4060V11Z" fill="#D52A1D"/>
<path d="M4060 0H4064C4070.08 0 4075 4.92487 4075 11H4060V0Z" fill="#D52A1D"/>
<path d="M4090 0H4086C4079.92 0 4075 4.92487 4075 11H4090V0Z" fill="#D52A1D"/>
<path d="M4130 11H4160V46H4130V11Z" fill="#D52A1D"/>
<path d="M4130 0H4134C4140.08 0 4145 4.92487 4145 11H4130V0Z" fill="#D52A1D"/>
<path d="M4160 0H4156C4149.92 0 4145 4.92487 4145 11H4160V0Z" fill="#D52A1D"/>
<path d="M4200 11H4230V46H4200V11Z" fill="#D52A1D"/>
<path d="M4200 0H4204C4210.08 0 4215 4.92487 4215 11H4200V0Z" fill="#D52A1D"/>
<path d="M4230 0H4226C4219.92 0 4215 4.92487 4215 11H4230V0Z" fill="#D52A1D"/>
<path d="M4270 11H4300V46H4270V11Z" fill="#D52A1D"/>
<path d="M4270 0H4274C4280.08 0 4285 4.92487 4285 11H4270V0Z" fill="#D52A1D"/>
<path d="M4300 0H4296C4289.92 0 4285 4.92487 4285 11H4300V0Z" fill="#D52A1D"/>
<path d="M4340 11H4370V46H4340V11Z" fill="#D52A1D"/>
<path d="M4340 0H4344C4350.08 0 4355 4.92487 4355 11H4340V0Z" fill="#D52A1D"/>
<path d="M4370 0H4366C4359.92 0 4355 4.92487 4355 11H4370V0Z" fill="#D52A1D"/>
<path d="M4410 11H4440V46H4410V11Z" fill="#D52A1D"/>
<path d="M4410 0H4414C4420.08 0 4425 4.92487 4425 11H4410V0Z" fill="#D52A1D"/>
<path d="M4440 0H4436C4429.92 0 4425 4.92487 4425 11H4440V0Z" fill="#D52A1D"/>
<path d="M4480 11H4510V46H4480V11Z" fill="#D52A1D"/>
<path d="M4480 0H4484C4490.08 0 4495 4.92487 4495 11H4480V0Z" fill="#D52A1D"/>
<path d="M4510 0H4506C4499.92 0 4495 4.92487 4495 11H4510V0Z" fill="#D52A1D"/>
<path d="M4550 11H4580V46H4550V11Z" fill="#D52A1D"/>
<path d="M4550 0H4554C4560.08 0 4565 4.92487 4565 11H4550V0Z" fill="#D52A1D"/>
<path d="M4580 0H4576C4569.92 0 4565 4.92487 4565 11H4580V0Z" fill="#D52A1D"/>
<path d="M4620 11H4650V46H4620V11Z" fill="#D52A1D"/>
<path d="M4620 0H4624C4630.08 0 4635 4.92487 4635 11H4620V0Z" fill="#D52A1D"/>
<path d="M4650 0H4646C4639.92 0 4635 4.92487 4635 11H4650V0Z" fill="#D52A1D"/>
<path d="M4690 11H4720V46H4690V11Z" fill="#D52A1D"/>
<path d="M4690 0H4694C4700.08 0 4705 4.92487 4705 11H4690V0Z" fill="#D52A1D"/>
<path d="M4720 0H4716C4709.92 0 4705 4.92487 4705 11H4720V0Z" fill="#D52A1D"/>
<rect x="3570" y="11" width="1190" height="68" fill="#D52A1D"/>
<path d="M4760 11H4790V46H4760V11Z" fill="#D52A1D"/>
<path d="M4760 0H4764C4770.08 0 4775 4.92487 4775 11H4760V0Z" fill="#D52A1D"/>
<path d="M4790 0H4786C4779.92 0 4775 4.92487 4775 11H4790V0Z" fill="#D52A1D"/>
<path d="M4830 11H4860V46H4830V11Z" fill="#D52A1D"/>
<path d="M4830 0H4834C4840.08 0 4845 4.92487 4845 11H4830V0Z" fill="#D52A1D"/>
<path d="M4860 0H4856C4849.92 0 4845 4.92487 4845 11H4860V0Z" fill="#D52A1D"/>
<path d="M4900 11H4930V46H4900V11Z" fill="#D52A1D"/>
<path d="M4900 0H4904C4910.08 0 4915 4.92487 4915 11H4900V0Z" fill="#D52A1D"/>
<path d="M4930 0H4926C4919.92 0 4915 4.92487 4915 11H4930V0Z" fill="#D52A1D"/>
<path d="M4970 11H5000V46H4970V11Z" fill="#D52A1D"/>
<path d="M4970 0H4974C4980.08 0 4985 4.92487 4985 11H4970V0Z" fill="#D52A1D"/>
<path d="M5000 0H4996C4989.92 0 4985 4.92487 4985 11H5000V0Z" fill="#D52A1D"/>
<path d="M5040 11H5070V46H5040V11Z" fill="#D52A1D"/>
<path d="M5040 0H5044C5050.08 0 5055 4.92487 5055 11H5040V0Z" fill="#D52A1D"/>
<path d="M5070 0H5066C5059.92 0 5055 4.92487 5055 11H5070V0Z" fill="#D52A1D"/>
<path d="M5110 11H5140V46H5110V11Z" fill="#D52A1D"/>
<path d="M5110 0H5114C5120.08 0 5125 4.92487 5125 11H5110V0Z" fill="#D52A1D"/>
<path d="M5140 0H5136C5129.92 0 5125 4.92487 5125 11H5140V0Z" fill="#D52A1D"/>
<path d="M5180 11H5210V46H5180V11Z" fill="#D52A1D"/>
<path d="M5180 0H5184C5190.08 0 5195 4.92487 5195 11H5180V0Z" fill="#D52A1D"/>
<path d="M5210 0H5206C5199.92 0 5195 4.92487 5195 11H5210V0Z" fill="#D52A1D"/>
<path d="M5250 11H5280V46H5250V11Z" fill="#D52A1D"/>
<path d="M5250 0H5254C5260.08 0 5265 4.92487 5265 11H5250V0Z" fill="#D52A1D"/>
<path d="M5280 0H5276C5269.92 0 5265 4.92487 5265 11H5280V0Z" fill="#D52A1D"/>
<path d="M5320 11H5350V46H5320V11Z" fill="#D52A1D"/>
<path d="M5320 0H5324C5330.08 0 5335 4.92487 5335 11H5320V0Z" fill="#D52A1D"/>
<path d="M5350 0H5346C5339.92 0 5335 4.92487 5335 11H5350V0Z" fill="#D52A1D"/>
<path d="M5390 11H5420V46H5390V11Z" fill="#D52A1D"/>
<path d="M5390 0H5394C5400.08 0 5405 4.92487 5405 11H5390V0Z" fill="#D52A1D"/>
<path d="M5420 0H5416C5409.92 0 5405 4.92487 5405 11H5420V0Z" fill="#D52A1D"/>
<path d="M5460 11H5490V46H5460V11Z" fill="#D52A1D"/>
<path d="M5460 0H5464C5470.08 0 5475 4.92487 5475 11H5460V0Z" fill="#D52A1D"/>
<path d="M5490 0H5486C5479.92 0 5475 4.92487 5475 11H5490V0Z" fill="#D52A1D"/>
<path d="M5530 11H5560V46H5530V11Z" fill="#D52A1D"/>
<path d="M5530 0H5534C5540.08 0 5545 4.92487 5545 11H5530V0Z" fill="#D52A1D"/>
<path d="M5560 0H5556C5549.92 0 5545 4.92487 5545 11H5560V0Z" fill="#D52A1D"/>
<path d="M5600 11H5630V46H5600V11Z" fill="#D52A1D"/>
<path d="M5600 0H5604C5610.08 0 5615 4.92487 5615 11H5600V0Z" fill="#D52A1D"/>
<path d="M5630 0H5626C5619.92 0 5615 4.92487 5615 11H5630V0Z" fill="#D52A1D"/>
<path d="M5670 11H5700V46H5670V11Z" fill="#D52A1D"/>
<path d="M5670 0H5674C5680.08 0 5685 4.92487 5685 11H5670V0Z" fill="#D52A1D"/>
<path d="M5700 0H5696C5689.92 0 5685 4.92487 5685 11H5700V0Z" fill="#D52A1D"/>
<path d="M5740 11H5770V46H5740V11Z" fill="#D52A1D"/>
<path d="M5740 0H5744C5750.08 0 5755 4.92487 5755 11H5740V0Z" fill="#D52A1D"/>
<path d="M5770 0H5766C5759.92 0 5755 4.92487 5755 11H5770V0Z" fill="#D52A1D"/>
<path d="M5810 11H5840V46H5810V11Z" fill="#D52A1D"/>
<path d="M5810 0H5814C5820.08 0 5825 4.92487 5825 11H5810V0Z" fill="#D52A1D"/>
<path d="M5840 0H5836C5829.92 0 5825 4.92487 5825 11H5840V0Z" fill="#D52A1D"/>
<path d="M5880 11H5910V46H5880V11Z" fill="#D52A1D"/>
<path d="M5880 0H5884C5890.08 0 5895 4.92487 5895 11H5880V0Z" fill="#D52A1D"/>
<path d="M5910 0H5906C5899.92 0 5895 4.92487 5895 11H5910V0Z" fill="#D52A1D"/>
<rect x="4760" y="11" width="1190" height="68" fill="#D52A1D"/>
<path d="M5950 11H5980V46H5950V11Z" fill="#D52A1D"/>
<path d="M5950 0H5954C5960.08 0 5965 4.92487 5965 11H5950V0Z" fill="#D52A1D"/>
<path d="M5980 0H5976C5969.92 0 5965 4.92487 5965 11H5980V0Z" fill="#D52A1D"/>
<path d="M6020 11H6050V46H6020V11Z" fill="#D52A1D"/>
<path d="M6020 0H6024C6030.08 0 6035 4.92487 6035 11H6020V0Z" fill="#D52A1D"/>
<path d="M6050 0H6046C6039.92 0 6035 4.92487 6035 11H6050V0Z" fill="#D52A1D"/>
<path d="M6090 11H6120V46H6090V11Z" fill="#D52A1D"/>
<path d="M6090 0H6094C6100.08 0 6105 4.92487 6105 11H6090V0Z" fill="#D52A1D"/>
<path d="M6120 0H6116C6109.92 0 6105 4.92487 6105 11H6120V0Z" fill="#D52A1D"/>
<path d="M6160 11H6190V46H6160V11Z" fill="#D52A1D"/>
<path d="M6160 0H6164C6170.08 0 6175 4.92487 6175 11H6160V0Z" fill="#D52A1D"/>
<path d="M6190 0H6186C6179.92 0 6175 4.92487 6175 11H6190V0Z" fill="#D52A1D"/>
<path d="M6230 11H6260V46H6230V11Z" fill="#D52A1D"/>
<path d="M6230 0H6234C6240.08 0 6245 4.92487 6245 11H6230V0Z" fill="#D52A1D"/>
<path d="M6260 0H6256C6249.92 0 6245 4.92487 6245 11H6260V0Z" fill="#D52A1D"/>
<path d="M6300 11H6330V46H6300V11Z" fill="#D52A1D"/>
<path d="M6300 0H6304C6310.08 0 6315 4.92487 6315 11H6300V0Z" fill="#D52A1D"/>
<path d="M6330 0H6326C6319.92 0 6315 4.92487 6315 11H6330V0Z" fill="#D52A1D"/>
<path d="M6370 11H6400V46H6370V11Z" fill="#D52A1D"/>
<path d="M6370 0H6374C6380.08 0 6385 4.92487 6385 11H6370V0Z" fill="#D52A1D"/>
<path d="M6400 0H6396C6389.92 0 6385 4.92487 6385 11H6400V0Z" fill="#D52A1D"/>
<path d="M6440 11H6470V46H6440V11Z" fill="#D52A1D"/>
<path d="M6440 0H6444C6450.08 0 6455 4.92487 6455 11H6440V0Z" fill="#D52A1D"/>
<path d="M6470 0H6466C6459.92 0 6455 4.92487 6455 11H6470V0Z" fill="#D52A1D"/>
<path d="M6510 11H6540V46H6510V11Z" fill="#D52A1D"/>
<path d="M6510 0H6514C6520.08 0 6525 4.92487 6525 11H6510V0Z" fill="#D52A1D"/>
<path d="M6540 0H6536C6529.92 0 6525 4.92487 6525 11H6540V0Z" fill="#D52A1D"/>
<path d="M6580 11H6610V46H6580V11Z" fill="#D52A1D"/>
<path d="M6580 0H6584C6590.08 0 6595 4.92487 6595 11H6580V0Z" fill="#D52A1D"/>
<path d="M6610 0H6606C6599.92 0 6595 4.92487 6595 11H6610V0Z" fill="#D52A1D"/>
<path d="M6650 11H6680V46H6650V11Z" fill="#D52A1D"/>
<path d="M6650 0H6654C6660.08 0 6665 4.92487 6665 11H6650V0Z" fill="#D52A1D"/>
<path d="M6680 0H6676C6669.92 0 6665 4.92487 6665 11H6680V0Z" fill="#D52A1D"/>
<path d="M6720 11H6750V46H6720V11Z" fill="#D52A1D"/>
<path d="M6720 0H6724C6730.08 0 6735 4.92487 6735 11H6720V0Z" fill="#D52A1D"/>
<path d="M6750 0H6746C6739.92 0 6735 4.92487 6735 11H6750V0Z" fill="#D52A1D"/>
<path d="M6790 11H6820V46H6790V11Z" fill="#D52A1D"/>
<path d="M6790 0H6794C6800.08 0 6805 4.92487 6805 11H6790V0Z" fill="#D52A1D"/>
<path d="M6820 0H6816C6809.92 0 6805 4.92487 6805 11H6820V0Z" fill="#D52A1D"/>
<path d="M6860 11H6890V46H6860V11Z" fill="#D52A1D"/>
<path d="M6860 0H6864C6870.08 0 6875 4.92487 6875 11H6860V0Z" fill="#D52A1D"/>
<path d="M6890 0H6886C6879.92 0 6875 4.92487 6875 11H6890V0Z" fill="#D52A1D"/>
<path d="M6930 11H6960V46H6930V11Z" fill="#D52A1D"/>
<path d="M6930 0H6934C6940.08 0 6945 4.92487 6945 11H6930V0Z" fill="#D52A1D"/>
<path d="M6960 0H6956C6949.92 0 6945 4.92487 6945 11H6960V0Z" fill="#D52A1D"/>
<path d="M7000 11H7030V46H7000V11Z" fill="#D52A1D"/>
<path d="M7000 0H7004C7010.08 0 7015 4.92487 7015 11H7000V0Z" fill="#D52A1D"/>
<path d="M7030 0H7026C7019.92 0 7015 4.92487 7015 11H7030V0Z" fill="#D52A1D"/>
<path d="M7070 11H7100V46H7070V11Z" fill="#D52A1D"/>
<path d="M7070 0H7074C7080.08 0 7085 4.92487 7085 11H7070V0Z" fill="#D52A1D"/>
<path d="M7100 0H7096C7089.92 0 7085 4.92487 7085 11H7100V0Z" fill="#D52A1D"/>
<rect x="5950" y="11" width="1190" height="68" fill="#D52A1D"/>
</svg>
