<svg width="1434" height="79" viewBox="0 0 1434 79" fill="none" xmlns="http://www.w3.org/2000/svg">
<path d="M247 11H277V46H247V11Z" fill="#D52A1D"/>
<path d="M247 0H251C257.075 0 262 4.92487 262 11H247V0Z" fill="#D52A1D"/>
<path d="M277 0H273C266.925 0 262 4.92487 262 11H277V0Z" fill="#D52A1D"/>
<path d="M317 11H347V46H317V11Z" fill="#D52A1D"/>
<path d="M317 0H321C327.075 0 332 4.92487 332 11H317V0Z" fill="#D52A1D"/>
<path d="M347 0H343C336.925 0 332 4.92487 332 11H347V0Z" fill="#D52A1D"/>
<path d="M387 11H417V46H387V11Z" fill="#D52A1D"/>
<path d="M387 0H391C397.075 0 402 4.92487 402 11H387V0Z" fill="#D52A1D"/>
<path d="M417 0H413C406.925 0 402 4.92487 402 11H417V0Z" fill="#D52A1D"/>
<path d="M457 11H487V46H457V11Z" fill="#D52A1D"/>
<path d="M457 0H461C467.075 0 472 4.92487 472 11H457V0Z" fill="#D52A1D"/>
<path d="M487 0H483C476.925 0 472 4.92487 472 11H487V0Z" fill="#D52A1D"/>
<path d="M527 11H557V46H527V11Z" fill="#D52A1D"/>
<path d="M527 0H531C537.075 0 542 4.92487 542 11H527V0Z" fill="#D52A1D"/>
<path d="M557 0H553C546.925 0 542 4.92487 542 11H557V0Z" fill="#D52A1D"/>
<path d="M597 11H627V46H597V11Z" fill="#D52A1D"/>
<path d="M597 0H601C607.075 0 612 4.92487 612 11H597V0Z" fill="#D52A1D"/>
<path d="M627 0H623C616.925 0 612 4.92487 612 11H627V0Z" fill="#D52A1D"/>
<path d="M667 11H697V46H667V11Z" fill="#D52A1D"/>
<path d="M667 0H671C677.075 0 682 4.92487 682 11H667V0Z" fill="#D52A1D"/>
<path d="M697 0H693C686.925 0 682 4.92487 682 11H697V0Z" fill="#D52A1D"/>
<path d="M737 11H767V46H737V11Z" fill="#D52A1D"/>
<path d="M737 0H741C747.075 0 752 4.92487 752 11H737V0Z" fill="#D52A1D"/>
<path d="M767 0H763C756.925 0 752 4.92487 752 11H767V0Z" fill="#D52A1D"/>
<path d="M807 11H837V46H807V11Z" fill="#D52A1D"/>
<path d="M807 0H811C817.075 0 822 4.92487 822 11H807V0Z" fill="#D52A1D"/>
<path d="M837 0H833C826.925 0 822 4.92487 822 11H837V0Z" fill="#D52A1D"/>
<path d="M877 11H907V46H877V11Z" fill="#D52A1D"/>
<path d="M877 0H881C887.075 0 892 4.92487 892 11H877V0Z" fill="#D52A1D"/>
<path d="M907 0H903C896.925 0 892 4.92487 892 11H907V0Z" fill="#D52A1D"/>
<path d="M947 11H977V46H947V11Z" fill="#D52A1D"/>
<path d="M947 0H951C957.075 0 962 4.92487 962 11H947V0Z" fill="#D52A1D"/>
<path d="M977 0H973C966.925 0 962 4.92487 962 11H977V0Z" fill="#D52A1D"/>
<path d="M1017 11H1047V46H1017V11Z" fill="#D52A1D"/>
<path d="M1017 0H1021C1027.08 0 1032 4.92487 1032 11H1017V0Z" fill="#D52A1D"/>
<path d="M1047 0H1043C1036.92 0 1032 4.92487 1032 11H1047V0Z" fill="#D52A1D"/>
<path d="M1087 11H1117V46H1087V11Z" fill="#D52A1D"/>
<path d="M1087 0H1091C1097.08 0 1102 4.92487 1102 11H1087V0Z" fill="#D52A1D"/>
<path d="M1117 0H1113C1106.92 0 1102 4.92487 1102 11H1117V0Z" fill="#D52A1D"/>
<path d="M1157 11H1187V46H1157V11Z" fill="#D52A1D"/>
<path d="M1157 0H1161C1167.08 0 1172 4.92487 1172 11H1157V0Z" fill="#D52A1D"/>
<path d="M1187 0H1183C1176.92 0 1172 4.92487 1172 11H1187V0Z" fill="#D52A1D"/>
<rect y="11" width="1434" height="68" fill="#D52A1D"/>
</svg>
